<svg xmlns="http://www.w3.org/2000/svg" width="1823" height="994" fill="none" viewBox="0 0 1823 994"><g fill="#fff"><mask id="a"><path d="M455.802 497h45.58v49.7h-45.58zm45.58 0h45.58v49.7h-45.58zm45.58 0h45.58v49.7h-45.58zm45.58 0h45.58v49.7h-45.58z"/><path d="M638.122 497h45.581v49.7h-45.581zm45.581 0h45.58v49.7h-45.58zm45.58 0h45.58v49.7h-45.58zm45.58 0h45.58v49.7h-45.58z"/><path d="M820.443 497h45.58v49.7h-45.58zm45.58 0h45.581v49.7h-45.581zm-410.221 49.7h45.58v49.7h-45.58zm45.58 0h45.58v49.7h-45.58zm45.58 0h45.58v49.7h-45.58zm45.58 0h45.58v49.7h-45.58z"/><path d="M638.122 546.7h45.581v49.7h-45.581zm45.581 0h45.58v49.7h-45.58zm45.58 0h45.58v49.7h-45.58zm45.58 0h45.58v49.7h-45.58z"/><path d="M820.443 546.7h45.58v49.7h-45.58zm45.58 0h45.581v49.7h-45.581zm-410.221 49.7h45.58v49.7h-45.58zm45.58 0h45.58v49.7h-45.58zm45.58 0h45.58v49.7h-45.58zm45.58 0h45.58v49.7h-45.58z"/><path d="M638.122 596.4h45.581v49.7h-45.581zm45.581 0h45.58v49.7h-45.58zm45.58 0h45.58v49.7h-45.58zm45.58 0h45.58v49.7h-45.58z"/><path d="M820.443 596.4h45.58v49.7h-45.58zm45.58 0h45.581v49.7h-45.581zm-410.221 49.7h45.58v49.7h-45.58zm45.58 0h45.58v49.7h-45.58zm45.58 0h45.58v49.7h-45.58zm45.58 0h45.58v49.7h-45.58z"/><path d="M638.122 646.1h45.581v49.7h-45.581zm45.581 0h45.58v49.7h-45.58zm45.58 0h45.58v49.7h-45.58zm45.58 0h45.58v49.7h-45.58z"/><path d="M820.443 646.1h45.58v49.7h-45.58zm45.58 0h45.581v49.7h-45.581zm-410.221 49.7h45.58v49.7h-45.58zm45.58 0h45.58v49.7h-45.58zm45.58 0h45.58v49.7h-45.58zm45.58 0h45.58v49.7h-45.58z"/><path d="M638.122 695.8h45.581v49.7h-45.581zm45.581 0h45.58v49.7h-45.58zm45.58 0h45.58v49.7h-45.58zm45.58 0h45.58v49.7h-45.58z"/><path d="M820.443 695.8h45.58v49.7h-45.58zm45.58 0h45.581v49.7h-45.581zm-410.221 49.7h45.58v49.7h-45.58zm45.58 0h45.58v49.7h-45.58zm45.58 0h45.58v49.7h-45.58zm45.58 0h45.58v49.7h-45.58z"/><path d="M638.122 745.5h45.581v49.7h-45.581zm45.581 0h45.58v49.7h-45.58zm45.58 0h45.58v49.7h-45.58zm45.58 0h45.58v49.7h-45.58z"/><path d="M820.443 745.5h45.58v49.7h-45.58zm45.58 0h45.581v49.7h-45.581zm-410.221 49.7h45.58v49.7h-45.58zm45.58 0h45.58v49.7h-45.58zm45.58 0h45.58v49.7h-45.58zm45.58 0h45.58v49.7h-45.58z"/><path d="M638.122 795.2h45.581v49.7h-45.581zm45.581 0h45.58v49.7h-45.58zm45.58 0h45.58v49.7h-45.58zm45.58 0h45.58v49.7h-45.58z"/><path d="M820.443 795.2h45.58v49.7h-45.58zm45.58 0h45.581v49.7h-45.581zm-410.221 49.7h45.58v49.7h-45.58zm45.58 0h45.58v49.7h-45.58zm45.58 0h45.58v49.7h-45.58zm45.58 0h45.58v49.7h-45.58z"/><path d="M638.122 844.9h45.581v49.7h-45.581zm45.581 0h45.58v49.7h-45.58zm45.58 0h45.58v49.7h-45.58zm45.58 0h45.58v49.7h-45.58z"/><path d="M820.443 844.9h45.58v49.7h-45.58zm45.58 0h45.581v49.7h-45.581zm-410.221 49.7h45.58v49.7h-45.58zm45.58 0h45.58v49.7h-45.58zm45.58 0h45.58v49.7h-45.58zm45.58 0h45.58v49.7h-45.58z"/><path d="M638.122 894.6h45.581v49.7h-45.581zm45.581 0h45.58v49.7h-45.58zm45.58 0h45.58v49.7h-45.58zm45.58 0h45.58v49.7h-45.58z"/><path d="M820.443 894.6h45.58v49.7h-45.58zm45.58 0h45.581v49.7h-45.581zm-410.221 49.7h45.58V994h-45.58zm45.58 0h45.58V994h-45.58zm45.58 0h45.58V994h-45.58zm45.58 0h45.58V994h-45.58z"/><path d="M638.122 944.3h45.581V994h-45.581zm45.581 0h45.58V994h-45.58zm45.58 0h45.58V994h-45.58zm45.58 0h45.58V994h-45.58z"/><path d="M820.443 944.3h45.58V994h-45.58zm45.58 0h45.581V994h-45.581zM0 497h45.58v49.7H0zm45.58 0h45.58v49.7H45.58zm45.58 0h45.581v49.7h-45.58zm45.581 0h45.58v49.7h-45.58zm45.58 0h45.58v49.7h-45.58zm45.58 0h45.58v49.7h-45.58zm45.58 0h45.58v49.7h-45.58zm45.58 0h45.581v49.7h-45.581zm45.581 0h45.58v49.7h-45.58zm45.58 0h45.58v49.7h-45.58zM0 546.7h45.58v49.7H0zm45.58 0h45.58v49.7H45.58zm45.58 0h45.581v49.7h-45.58zm45.581 0h45.58v49.7h-45.58z"/><path d="M182.321 546.7h45.58v49.7h-45.58zm45.58 0h45.58v49.7h-45.58zm45.58 0h45.58v49.7h-45.58zm45.58 0h45.581v49.7h-45.581zm45.581 0h45.58v49.7h-45.58zm45.58 0h45.58v49.7h-45.58zM0 596.4h45.58v49.7H0zm45.58 0h45.58v49.7H45.58zm45.58 0h45.581v49.7h-45.58z"/><path d="M136.741 596.4h45.58v49.7h-45.58z"/><path d="M182.321 596.4h45.58v49.7h-45.58zm45.58 0h45.58v49.7h-45.58zm45.58 0h45.58v49.7h-45.58zm45.58 0h45.581v49.7h-45.581zm45.581 0h45.58v49.7h-45.58zm45.58 0h45.58v49.7h-45.58zM0 646.1h45.58v49.7H0zm45.58 0h45.58v49.7H45.58zm45.58 0h45.581v49.7h-45.58zm45.581 0h45.58v49.7h-45.58z"/><path d="M182.321 646.1h45.58v49.7h-45.58zm45.58 0h45.58v49.7h-45.58zm45.58 0h45.58v49.7h-45.58zm45.58 0h45.581v49.7h-45.581zm45.581 0h45.58v49.7h-45.58zm45.58 0h45.58v49.7h-45.58zM0 695.8h45.58v49.7H0zm45.58 0h45.58v49.7H45.58zm45.58 0h45.581v49.7h-45.58z"/><path d="M136.741 695.8h45.58v49.7h-45.58z"/><path d="M182.321 695.8h45.58v49.7h-45.58zm45.58 0h45.58v49.7h-45.58zm45.58 0h45.58v49.7h-45.58zm45.58 0h45.581v49.7h-45.581zm45.581 0h45.58v49.7h-45.58zm45.58 0h45.58v49.7h-45.58zM0 745.5h45.58v49.7H0zm45.58 0h45.58v49.7H45.58zm45.58 0h45.581v49.7h-45.58zm45.581 0h45.58v49.7h-45.58zm45.58 0h45.58v49.7h-45.58zm45.58 0h45.58v49.7h-45.58zm45.58 0h45.58v49.7h-45.58zm45.58 0h45.581v49.7h-45.581zm45.581 0h45.58v49.7h-45.58zm45.58 0h45.58v49.7h-45.58zM0 795.2h45.58v49.7H0zm45.58 0h45.58v49.7H45.58zm45.58 0h45.581v49.7h-45.58zm45.581 0h45.58v49.7h-45.58z"/><path d="M182.321 795.2h45.58v49.7h-45.58zm45.58 0h45.58v49.7h-45.58zm45.58 0h45.58v49.7h-45.58zm45.58 0h45.581v49.7h-45.581zm45.581 0h45.58v49.7h-45.58zm45.58 0h45.58v49.7h-45.58zM0 844.9h45.58v49.7H0zm45.58 0h45.58v49.7H45.58zm45.58 0h45.581v49.7h-45.58z"/><path d="M136.741 844.9h45.58v49.7h-45.58z"/><path d="M182.321 844.9h45.58v49.7h-45.58zm45.58 0h45.58v49.7h-45.58zm45.58 0h45.58v49.7h-45.58zm45.58 0h45.581v49.7h-45.581zm45.581 0h45.58v49.7h-45.58zm45.58 0h45.58v49.7h-45.58zM0 894.6h45.58v49.7H0zm45.58 0h45.58v49.7H45.58zm45.58 0h45.581v49.7h-45.58zm45.581 0h45.58v49.7h-45.58z"/><path d="M182.321 894.6h45.58v49.7h-45.58zm45.58 0h45.58v49.7h-45.58zm45.58 0h45.58v49.7h-45.58zm45.58 0h45.581v49.7h-45.581zm45.581 0h45.58v49.7h-45.58zm45.58 0h45.58v49.7h-45.58zM0 944.3h45.58V994H0zm45.58 0h45.58V994H45.58zm45.58 0h45.581V994h-45.58z"/><path d="M136.741 944.3h45.58V994h-45.58z"/><path d="M182.321 944.3h45.58V994h-45.58zm45.58 0h45.58V994h-45.58zm45.58 0h45.58V994h-45.58zm45.58 0h45.581V994h-45.581zm45.581 0h45.58V994h-45.58zm45.58 0h45.58V994h-45.58zM1367.2 497h45.58v49.7h-45.58zm45.58 0h45.58v49.7h-45.58zm45.58 0h45.58v49.7h-45.58zm45.58 0h45.58v49.7h-45.58zm45.58 0h45.58v49.7h-45.58zm45.58 0h45.58v49.7h-45.58zm45.58 0h45.58v49.7h-45.58zm45.58 0h45.58v49.7h-45.58zm45.58 0h45.58v49.7h-45.58zm45.58 0H1823v49.7h-45.58zm-410.22 49.7h45.58v49.7h-45.58zm45.58 0h45.58v49.7h-45.58zm45.58 0h45.58v49.7h-45.58zm45.58 0h45.58v49.7h-45.58zm45.58 0h45.58v49.7h-45.58zm45.58 0h45.58v49.7h-45.58zm45.58 0h45.58v49.7h-45.58zm45.58 0h45.58v49.7h-45.58zm45.58 0h45.58v49.7h-45.58zm45.58 0H1823v49.7h-45.58z"/><path d="M1367.2 596.4h45.58v49.7h-45.58zm45.58 0h45.58v49.7h-45.58zm45.58 0h45.58v49.7h-45.58zm45.58 0h45.58v49.7h-45.58zm45.58 0h45.58v49.7h-45.58zm45.58 0h45.58v49.7h-45.58zm45.58 0h45.58v49.7h-45.58zm45.58 0h45.58v49.7h-45.58zm45.58 0h45.58v49.7h-45.58zm45.58 0H1823v49.7h-45.58zm-410.22 49.7h45.58v49.7h-45.58zm45.58 0h45.58v49.7h-45.58zm45.58 0h45.58v49.7h-45.58zm45.58 0h45.58v49.7h-45.58zm45.58 0h45.58v49.7h-45.58zm45.58 0h45.58v49.7h-45.58zm45.58 0h45.58v49.7h-45.58zm45.58 0h45.58v49.7h-45.58zm45.58 0h45.58v49.7h-45.58zm45.58 0H1823v49.7h-45.58z"/><path d="M1367.2 695.8h45.58v49.7h-45.58zm45.58 0h45.58v49.7h-45.58zm45.58 0h45.58v49.7h-45.58zm45.58 0h45.58v49.7h-45.58zm45.58 0h45.58v49.7h-45.58zm45.58 0h45.58v49.7h-45.58zm45.58 0h45.58v49.7h-45.58zm45.58 0h45.58v49.7h-45.58zm45.58 0h45.58v49.7h-45.58zm45.58 0H1823v49.7h-45.58zm-410.22 49.7h45.58v49.7h-45.58zm45.58 0h45.58v49.7h-45.58zm45.58 0h45.58v49.7h-45.58zm45.58 0h45.58v49.7h-45.58zm45.58 0h45.58v49.7h-45.58zm45.58 0h45.58v49.7h-45.58zm45.58 0h45.58v49.7h-45.58zm45.58 0h45.58v49.7h-45.58zm45.58 0h45.58v49.7h-45.58zm45.58 0H1823v49.7h-45.58zm-410.22 49.7h45.58v49.7h-45.58zm45.58 0h45.58v49.7h-45.58zm45.58 0h45.58v49.7h-45.58zm45.58 0h45.58v49.7h-45.58zm45.58 0h45.58v49.7h-45.58zm45.58 0h45.58v49.7h-45.58zm45.58 0h45.58v49.7h-45.58zm45.58 0h45.58v49.7h-45.58zm45.58 0h45.58v49.7h-45.58zm45.58 0H1823v49.7h-45.58z"/><path d="M1367.2 844.9h45.58v49.7h-45.58zm45.58 0h45.58v49.7h-45.58zm45.58 0h45.58v49.7h-45.58zm45.58 0h45.58v49.7h-45.58zm45.58 0h45.58v49.7h-45.58zm45.58 0h45.58v49.7h-45.58zm45.58 0h45.58v49.7h-45.58zm45.58 0h45.58v49.7h-45.58zm45.58 0h45.58v49.7h-45.58zm45.58 0H1823v49.7h-45.58zm-410.22 49.7h45.58v49.7h-45.58zm45.58 0h45.58v49.7h-45.58zm45.58 0h45.58v49.7h-45.58zm45.58 0h45.58v49.7h-45.58zm45.58 0h45.58v49.7h-45.58zm45.58 0h45.58v49.7h-45.58zm45.58 0h45.58v49.7h-45.58zm45.58 0h45.58v49.7h-45.58zm45.58 0h45.58v49.7h-45.58zm45.58 0H1823v49.7h-45.58z"/><path d="M1367.2 944.3h45.58V994h-45.58zm45.58 0h45.58V994h-45.58zm45.58 0h45.58V994h-45.58zm45.58 0h45.58V994h-45.58zm45.58 0h45.58V994h-45.58zm45.58 0h45.58V994h-45.58zm45.58 0h45.58V994h-45.58zm45.58 0h45.58V994h-45.58zm45.58 0h45.58V994h-45.58zm45.58 0H1823V994h-45.58zM911.396 497h45.58v49.7h-45.58z"/><path d="M956.976 497h45.584v49.7h-45.584z"/><path d="M1002.56 497h45.58v49.7h-45.58zm45.58 0h45.58v49.7h-45.58zm45.58 0h45.58v49.7h-45.58zm45.58 0h45.58v49.7h-45.58zm45.58 0h45.58v49.7h-45.58zm45.58 0h45.58v49.7h-45.58zm45.58 0h45.58v49.7h-45.58zm45.58 0h45.58v49.7h-45.58zm-410.224 49.7h45.58v49.7h-45.58zm45.58 0h45.584v49.7h-45.584zm45.584 0h45.58v49.7h-45.58zm45.58 0h45.58v49.7h-45.58zm45.58 0h45.58v49.7h-45.58zm45.58 0h45.58v49.7h-45.58zm45.58 0h45.58v49.7h-45.58zm45.58 0h45.58v49.7h-45.58zm45.58 0h45.58v49.7h-45.58zm45.58 0h45.58v49.7h-45.58zm-410.224 49.7h45.58v49.7h-45.58z"/><path d="M956.976 596.4h45.584v49.7h-45.584z"/><path d="M1002.56 596.4h45.58v49.7h-45.58zm45.58 0h45.58v49.7h-45.58zm45.58 0h45.58v49.7h-45.58zm45.58 0h45.58v49.7h-45.58zm45.58 0h45.58v49.7h-45.58zm45.58 0h45.58v49.7h-45.58zm45.58 0h45.58v49.7h-45.58zm45.58 0h45.58v49.7h-45.58zm-410.224 49.7h45.58v49.7h-45.58zm45.58 0h45.584v49.7h-45.584zm45.584 0h45.58v49.7h-45.58zm45.58 0h45.58v49.7h-45.58zm45.58 0h45.58v49.7h-45.58zm45.58 0h45.58v49.7h-45.58zm45.58 0h45.58v49.7h-45.58zm45.58 0h45.58v49.7h-45.58zm45.58 0h45.58v49.7h-45.58zm45.58 0h45.58v49.7h-45.58zm-410.224 49.7h45.58v49.7h-45.58z"/><path d="M956.976 695.8h45.584v49.7h-45.584z"/><path d="M1002.56 695.8h45.58v49.7h-45.58zm45.58 0h45.58v49.7h-45.58zm45.58 0h45.58v49.7h-45.58zm45.58 0h45.58v49.7h-45.58zm45.58 0h45.58v49.7h-45.58zm45.58 0h45.58v49.7h-45.58zm45.58 0h45.58v49.7h-45.58zm45.58 0h45.58v49.7h-45.58zm-410.224 49.7h45.58v49.7h-45.58zm45.58 0h45.584v49.7h-45.584zm45.584 0h45.58v49.7h-45.58zm45.58 0h45.58v49.7h-45.58zm45.58 0h45.58v49.7h-45.58zm45.58 0h45.58v49.7h-45.58zm45.58 0h45.58v49.7h-45.58zm45.58 0h45.58v49.7h-45.58zm45.58 0h45.58v49.7h-45.58zm45.58 0h45.58v49.7h-45.58zm-410.224 49.7h45.58v49.7h-45.58zm45.58 0h45.584v49.7h-45.584zm45.584 0h45.58v49.7h-45.58zm45.58 0h45.58v49.7h-45.58zm45.58 0h45.58v49.7h-45.58zm45.58 0h45.58v49.7h-45.58zm45.58 0h45.58v49.7h-45.58zm45.58 0h45.58v49.7h-45.58zm45.58 0h45.58v49.7h-45.58zm45.58 0h45.58v49.7h-45.58zm-410.224 49.7h45.58v49.7h-45.58z"/><path d="M956.976 844.9h45.584v49.7h-45.584z"/><path d="M1002.56 844.9h45.58v49.7h-45.58zm45.58 0h45.58v49.7h-45.58zm45.58 0h45.58v49.7h-45.58zm45.58 0h45.58v49.7h-45.58zm45.58 0h45.58v49.7h-45.58zm45.58 0h45.58v49.7h-45.58zm45.58 0h45.58v49.7h-45.58zm45.58 0h45.58v49.7h-45.58zm-410.224 49.7h45.58v49.7h-45.58zm45.58 0h45.584v49.7h-45.584zm45.584 0h45.58v49.7h-45.58zm45.58 0h45.58v49.7h-45.58zm45.58 0h45.58v49.7h-45.58zm45.58 0h45.58v49.7h-45.58zm45.58 0h45.58v49.7h-45.58zm45.58 0h45.58v49.7h-45.58zm45.58 0h45.58v49.7h-45.58zm45.58 0h45.58v49.7h-45.58zm-410.224 49.7h45.58V994h-45.58z"/><path d="M956.976 944.3h45.584V994h-45.584z"/><path d="M1002.56 944.3h45.58V994h-45.58zm45.58 0h45.58V994h-45.58zm45.58 0h45.58V994h-45.58zm45.58 0h45.58V994h-45.58zm45.58 0h45.58V994h-45.58zm45.58 0h45.58V994h-45.58zm45.58 0h45.58V994h-45.58zm45.58 0h45.58V994h-45.58zM455.802 0h45.58v49.7h-45.58zm45.58 0h45.58v49.7h-45.58zm45.58 0h45.58v49.7h-45.58zm45.58 0h45.58v49.7h-45.58z"/><path d="M638.122 0h45.581v49.7h-45.581zm45.581 0h45.58v49.7h-45.58zm45.58 0h45.58v49.7h-45.58zm45.58 0h45.58v49.7h-45.58z"/><path d="M820.443 0h45.58v49.7h-45.58zm45.58 0h45.581v49.7h-45.581zM455.802 49.7h45.58v49.7h-45.58zm45.58 0h45.58v49.7h-45.58zm45.58 0h45.58v49.7h-45.58zm45.58 0h45.58v49.7h-45.58z"/><path d="M638.122 49.7h45.581v49.7h-45.581zm45.581 0h45.58v49.7h-45.58zm45.58 0h45.58v49.7h-45.58zm45.58 0h45.58v49.7h-45.58z"/><path d="M820.443 49.7h45.58v49.7h-45.58zm45.58 0h45.581v49.7h-45.581zM455.802 99.4h45.58v49.7h-45.58zm45.58 0h45.58v49.7h-45.58zm45.58 0h45.58v49.7h-45.58zm45.58 0h45.58v49.7h-45.58z"/><path d="M638.122 99.4h45.581v49.7h-45.581zm45.581 0h45.58v49.7h-45.58zm45.58 0h45.58v49.7h-45.58zm45.58 0h45.58v49.7h-45.58z"/><path d="M820.443 99.4h45.58v49.7h-45.58zm45.58 0h45.581v49.7h-45.581zm-410.221 49.7h45.58v49.7h-45.58zm45.58 0h45.58v49.7h-45.58zm45.58 0h45.58v49.7h-45.58zm45.58 0h45.58v49.7h-45.58z"/><path d="M638.122 149.1h45.581v49.7h-45.581zm45.581 0h45.58v49.7h-45.58zm45.58 0h45.58v49.7h-45.58zm45.58 0h45.58v49.7h-45.58z"/><path d="M820.443 149.1h45.58v49.7h-45.58zm45.58 0h45.581v49.7h-45.581zm-410.221 49.7h45.58v49.7h-45.58zm45.58 0h45.58v49.7h-45.58zm45.58 0h45.58v49.7h-45.58zm45.58 0h45.58v49.7h-45.58z"/><path d="M638.122 198.8h45.581v49.7h-45.581zm45.581 0h45.58v49.7h-45.58zm45.58 0h45.58v49.7h-45.58zm45.58 0h45.58v49.7h-45.58z"/><path d="M820.443 198.8h45.58v49.7h-45.58zm45.58 0h45.581v49.7h-45.581zm-410.221 49.7h45.58v49.7h-45.58zm45.58 0h45.58v49.7h-45.58zm45.58 0h45.58v49.7h-45.58zm45.58 0h45.58v49.7h-45.58z"/><path d="M638.122 248.5h45.581v49.7h-45.581zm45.581 0h45.58v49.7h-45.58zm45.58 0h45.58v49.7h-45.58zm45.58 0h45.58v49.7h-45.58z"/><path d="M820.443 248.5h45.58v49.7h-45.58zm45.58 0h45.581v49.7h-45.581zm-410.221 49.7h45.58v49.7h-45.58zm45.58 0h45.58v49.7h-45.58zm45.58 0h45.58v49.7h-45.58zm45.58 0h45.58v49.7h-45.58z"/><path d="M638.122 298.2h45.581v49.7h-45.581zm45.581 0h45.58v49.7h-45.58zm45.58 0h45.58v49.7h-45.58zm45.58 0h45.58v49.7h-45.58z"/><path d="M820.443 298.2h45.58v49.7h-45.58zm45.58 0h45.581v49.7h-45.581zm-410.221 49.7h45.58v49.7h-45.58zm45.58 0h45.58v49.7h-45.58zm45.58 0h45.58v49.7h-45.58zm45.58 0h45.58v49.7h-45.58z"/><path d="M638.122 347.9h45.581v49.7h-45.581zm45.581 0h45.58v49.7h-45.58zm45.58 0h45.58v49.7h-45.58zm45.58 0h45.58v49.7h-45.58z"/><path d="M820.443 347.9h45.58v49.7h-45.58zm45.58 0h45.581v49.7h-45.581zm-410.221 49.7h45.58v49.7h-45.58zm45.58 0h45.58v49.7h-45.58zm45.58 0h45.58v49.7h-45.58zm45.58 0h45.58v49.7h-45.58z"/><path d="M638.122 397.6h45.581v49.7h-45.581zm45.581 0h45.58v49.7h-45.58zm45.58 0h45.58v49.7h-45.58zm45.58 0h45.58v49.7h-45.58z"/><path d="M820.443 397.6h45.58v49.7h-45.58zm45.58 0h45.581v49.7h-45.581zm-410.221 49.7h45.58V497h-45.58zm45.58 0h45.58V497h-45.58zm45.58 0h45.58V497h-45.58zm45.58 0h45.58V497h-45.58z"/><path d="M638.122 447.3h45.581V497h-45.581zm45.581 0h45.58V497h-45.58zm45.58 0h45.58V497h-45.58zm45.58 0h45.58V497h-45.58z"/><path d="M820.443 447.3h45.58V497h-45.58zm45.58 0h45.581V497h-45.581zM0 0h45.58v49.7H0zm45.58 0h45.58v49.7H45.58zm45.58 0h45.581v49.7h-45.58zm45.581 0h45.58v49.7h-45.58zm45.58 0h45.58v49.7h-45.58zm45.58 0h45.58v49.7h-45.58zm45.58 0h45.58v49.7h-45.58zm45.58 0h45.581v49.7h-45.581zm45.581 0h45.58v49.7h-45.58zm45.58 0h45.58v49.7h-45.58zM0 49.7h45.58v49.7H0zm45.58 0h45.58v49.7H45.58zm45.58 0h45.581v49.7h-45.58zm45.581 0h45.58v49.7h-45.58zm45.58 0h45.58v49.7h-45.58zm45.58 0h45.58v49.7h-45.58zm45.58 0h45.58v49.7h-45.58zm45.58 0h45.581v49.7h-45.581zm45.581 0h45.58v49.7h-45.58zm45.58 0h45.58v49.7h-45.58zM0 99.4h45.58v49.7H0zm45.58 0h45.58v49.7H45.58zm45.58 0h45.581v49.7h-45.58zm45.581 0h45.58v49.7h-45.58z"/><path d="M182.321 99.4h45.58v49.7h-45.58zm45.58 0h45.58v49.7h-45.58zm45.58 0h45.58v49.7h-45.58zm45.58 0h45.581v49.7h-45.581zm45.581 0h45.58v49.7h-45.58zm45.58 0h45.58v49.7h-45.58zM0 149.1h45.58v49.7H0zm45.58 0h45.58v49.7H45.58zm45.58 0h45.581v49.7h-45.58z"/><path d="M136.741 149.1h45.58v49.7h-45.58z"/><path d="M182.321 149.1h45.58v49.7h-45.58zm45.58 0h45.58v49.7h-45.58zm45.58 0h45.58v49.7h-45.58zm45.58 0h45.581v49.7h-45.581zm45.581 0h45.58v49.7h-45.58zm45.58 0h45.58v49.7h-45.58zM0 198.8h45.58v49.7H0zm45.58 0h45.58v49.7H45.58zm45.58 0h45.581v49.7h-45.58zm45.581 0h45.58v49.7h-45.58zm45.58 0h45.58v49.7h-45.58zm45.58 0h45.58v49.7h-45.58zm45.58 0h45.58v49.7h-45.58zm45.58 0h45.581v49.7h-45.581zm45.581 0h45.58v49.7h-45.58zm45.58 0h45.58v49.7h-45.58zM0 248.5h45.58v49.7H0zm45.58 0h45.58v49.7H45.58zm45.58 0h45.581v49.7h-45.58zm45.581 0h45.58v49.7h-45.58zm45.58 0h45.58v49.7h-45.58zm45.58 0h45.58v49.7h-45.58zm45.58 0h45.58v49.7h-45.58zm45.58 0h45.581v49.7h-45.581zm45.581 0h45.58v49.7h-45.58zm45.58 0h45.58v49.7h-45.58zM0 298.2h45.58v49.7H0zm45.58 0h45.58v49.7H45.58zm45.58 0h45.581v49.7h-45.58zm45.581 0h45.58v49.7h-45.58zm45.58 0h45.58v49.7h-45.58zm45.58 0h45.58v49.7h-45.58zm45.58 0h45.58v49.7h-45.58zm45.58 0h45.581v49.7h-45.581zm45.581 0h45.58v49.7h-45.58zm45.58 0h45.58v49.7h-45.58zM0 347.9h45.58v49.7H0zm45.58 0h45.58v49.7H45.58zm45.58 0h45.581v49.7h-45.58zm45.581 0h45.58v49.7h-45.58zm45.58 0h45.58v49.7h-45.58zm45.58 0h45.58v49.7h-45.58zm45.58 0h45.58v49.7h-45.58zm45.58 0h45.581v49.7h-45.581zm45.581 0h45.58v49.7h-45.58zm45.58 0h45.58v49.7h-45.58zM0 397.6h45.58v49.7H0zm45.58 0h45.58v49.7H45.58zm45.58 0h45.581v49.7h-45.58zm45.581 0h45.58v49.7h-45.58zm45.58 0h45.58v49.7h-45.58zm45.58 0h45.58v49.7h-45.58zm45.58 0h45.58v49.7h-45.58zm45.58 0h45.581v49.7h-45.581zm45.581 0h45.58v49.7h-45.58zm45.58 0h45.58v49.7h-45.58zM0 447.3h45.58V497H0zm45.58 0h45.58V497H45.58zm45.58 0h45.581V497h-45.58zm45.581 0h45.58V497h-45.58zm45.58 0h45.58V497h-45.58zm45.58 0h45.58V497h-45.58zm45.58 0h45.58V497h-45.58zm45.58 0h45.581V497h-45.581zm45.581 0h45.58V497h-45.58zm45.58 0h45.58V497h-45.58zM1367.2 0h45.58v49.7h-45.58zm45.58 0h45.58v49.7h-45.58zm45.58 0h45.58v49.7h-45.58zm45.58 0h45.58v49.7h-45.58zm45.58 0h45.58v49.7h-45.58zm45.58 0h45.58v49.7h-45.58zm45.58 0h45.58v49.7h-45.58zm45.58 0h45.58v49.7h-45.58zm45.58 0h45.58v49.7h-45.58zm45.58 0H1823v49.7h-45.58zM1367.2 49.7h45.58v49.7h-45.58zm45.58 0h45.58v49.7h-45.58zm45.58 0h45.58v49.7h-45.58zm45.58 0h45.58v49.7h-45.58zm45.58 0h45.58v49.7h-45.58zm45.58 0h45.58v49.7h-45.58zm45.58 0h45.58v49.7h-45.58zm45.58 0h45.58v49.7h-45.58zm45.58 0h45.58v49.7h-45.58zm45.58 0H1823v49.7h-45.58zM1367.2 99.4h45.58v49.7h-45.58zm45.58 0h45.58v49.7h-45.58zm45.58 0h45.58v49.7h-45.58zm45.58 0h45.58v49.7h-45.58zm45.58 0h45.58v49.7h-45.58zm45.58 0h45.58v49.7h-45.58zm45.58 0h45.58v49.7h-45.58zm45.58 0h45.58v49.7h-45.58zm45.58 0h45.58v49.7h-45.58zm45.58 0H1823v49.7h-45.58z"/><path d="M1367.2 149.1h45.58v49.7h-45.58zm45.58 0h45.58v49.7h-45.58zm45.58 0h45.58v49.7h-45.58zm45.58 0h45.58v49.7h-45.58zm45.58 0h45.58v49.7h-45.58zm45.58 0h45.58v49.7h-45.58zm45.58 0h45.58v49.7h-45.58zm45.58 0h45.58v49.7h-45.58zm45.58 0h45.58v49.7h-45.58zm45.58 0H1823v49.7h-45.58zm-410.22 49.7h45.58v49.7h-45.58zm45.58 0h45.58v49.7h-45.58zm45.58 0h45.58v49.7h-45.58zm45.58 0h45.58v49.7h-45.58zm45.58 0h45.58v49.7h-45.58zm45.58 0h45.58v49.7h-45.58zm45.58 0h45.58v49.7h-45.58zm45.58 0h45.58v49.7h-45.58zm45.58 0h45.58v49.7h-45.58zm45.58 0H1823v49.7h-45.58zm-410.22 49.7h45.58v49.7h-45.58zm45.58 0h45.58v49.7h-45.58zm45.58 0h45.58v49.7h-45.58zm45.58 0h45.58v49.7h-45.58zm45.58 0h45.58v49.7h-45.58zm45.58 0h45.58v49.7h-45.58zm45.58 0h45.58v49.7h-45.58zm45.58 0h45.58v49.7h-45.58zm45.58 0h45.58v49.7h-45.58zm45.58 0H1823v49.7h-45.58zm-410.22 49.7h45.58v49.7h-45.58zm45.58 0h45.58v49.7h-45.58zm45.58 0h45.58v49.7h-45.58zm45.58 0h45.58v49.7h-45.58zm45.58 0h45.58v49.7h-45.58zm45.58 0h45.58v49.7h-45.58zm45.58 0h45.58v49.7h-45.58zm45.58 0h45.58v49.7h-45.58zm45.58 0h45.58v49.7h-45.58zm45.58 0H1823v49.7h-45.58zm-410.22 49.7h45.58v49.7h-45.58zm45.58 0h45.58v49.7h-45.58zm45.58 0h45.58v49.7h-45.58zm45.58 0h45.58v49.7h-45.58zm45.58 0h45.58v49.7h-45.58zm45.58 0h45.58v49.7h-45.58zm45.58 0h45.58v49.7h-45.58zm45.58 0h45.58v49.7h-45.58zm45.58 0h45.58v49.7h-45.58zm45.58 0H1823v49.7h-45.58zm-410.22 49.7h45.58v49.7h-45.58zm45.58 0h45.58v49.7h-45.58zm45.58 0h45.58v49.7h-45.58zm45.58 0h45.58v49.7h-45.58zm45.58 0h45.58v49.7h-45.58zm45.58 0h45.58v49.7h-45.58zm45.58 0h45.58v49.7h-45.58zm45.58 0h45.58v49.7h-45.58zm45.58 0h45.58v49.7h-45.58zm45.58 0H1823v49.7h-45.58zm-410.22 49.7h45.58V497h-45.58zm45.58 0h45.58V497h-45.58zm45.58 0h45.58V497h-45.58zm45.58 0h45.58V497h-45.58zm45.58 0h45.58V497h-45.58zm45.58 0h45.58V497h-45.58zm45.58 0h45.58V497h-45.58zm45.58 0h45.58V497h-45.58zm45.58 0h45.58V497h-45.58zm45.58 0H1823V497h-45.58zM911.396 0h45.58v49.7h-45.58z"/><path d="M956.976 0h45.584v49.7h-45.584z"/><path d="M1002.56 0h45.58v49.7h-45.58zm45.58 0h45.58v49.7h-45.58zm45.58 0h45.58v49.7h-45.58zm45.58 0h45.58v49.7h-45.58zm45.58 0h45.58v49.7h-45.58zm45.58 0h45.58v49.7h-45.58zm45.58 0h45.58v49.7h-45.58zm45.58 0h45.58v49.7h-45.58zM911.396 49.7h45.58v49.7h-45.58z"/><path d="M956.976 49.7h45.584v49.7h-45.584z"/><path d="M1002.56 49.7h45.58v49.7h-45.58zm45.58 0h45.58v49.7h-45.58zm45.58 0h45.58v49.7h-45.58zm45.58 0h45.58v49.7h-45.58zm45.58 0h45.58v49.7h-45.58zm45.58 0h45.58v49.7h-45.58zm45.58 0h45.58v49.7h-45.58zm45.58 0h45.58v49.7h-45.58zM911.396 99.4h45.58v49.7h-45.58z"/><path d="M956.976 99.4h45.584v49.7h-45.584z"/><path d="M1002.56 99.4h45.58v49.7h-45.58zm45.58 0h45.58v49.7h-45.58zm45.58 0h45.58v49.7h-45.58zm45.58 0h45.58v49.7h-45.58zm45.58 0h45.58v49.7h-45.58zm45.58 0h45.58v49.7h-45.58zm45.58 0h45.58v49.7h-45.58zm45.58 0h45.58v49.7h-45.58zm-410.224 49.7h45.58v49.7h-45.58z"/><path d="M956.976 149.1h45.584v49.7h-45.584z"/><path d="M1002.56 149.1h45.58v49.7h-45.58zm45.58 0h45.58v49.7h-45.58zm45.58 0h45.58v49.7h-45.58zm45.58 0h45.58v49.7h-45.58zm45.58 0h45.58v49.7h-45.58zm45.58 0h45.58v49.7h-45.58zm45.58 0h45.58v49.7h-45.58zm45.58 0h45.58v49.7h-45.58zm-410.224 49.7h45.58v49.7h-45.58zm45.58 0h45.584v49.7h-45.584zm45.584 0h45.58v49.7h-45.58zm45.58 0h45.58v49.7h-45.58zm45.58 0h45.58v49.7h-45.58zm45.58 0h45.58v49.7h-45.58zm45.58 0h45.58v49.7h-45.58zm45.58 0h45.58v49.7h-45.58zm45.58 0h45.58v49.7h-45.58zm45.58 0h45.58v49.7h-45.58zm-410.224 49.7h45.58v49.7h-45.58zm45.58 0h45.584v49.7h-45.584zm45.584 0h45.58v49.7h-45.58zm45.58 0h45.58v49.7h-45.58zm45.58 0h45.58v49.7h-45.58zm45.58 0h45.58v49.7h-45.58zm45.58 0h45.58v49.7h-45.58zm45.58 0h45.58v49.7h-45.58zm45.58 0h45.58v49.7h-45.58zm45.58 0h45.58v49.7h-45.58zm-410.224 49.7h45.58v49.7h-45.58zm45.58 0h45.584v49.7h-45.584zm45.584 0h45.58v49.7h-45.58zm45.58 0h45.58v49.7h-45.58zm45.58 0h45.58v49.7h-45.58zm45.58 0h45.58v49.7h-45.58zm45.58 0h45.58v49.7h-45.58zm45.58 0h45.58v49.7h-45.58zm45.58 0h45.58v49.7h-45.58zm45.58 0h45.58v49.7h-45.58zm-410.224 49.7h45.58v49.7h-45.58zm45.58 0h45.584v49.7h-45.584zm45.584 0h45.58v49.7h-45.58zm45.58 0h45.58v49.7h-45.58zm45.58 0h45.58v49.7h-45.58zm45.58 0h45.58v49.7h-45.58zm45.58 0h45.58v49.7h-45.58zm45.58 0h45.58v49.7h-45.58zm45.58 0h45.58v49.7h-45.58zm45.58 0h45.58v49.7h-45.58zm-410.224 49.7h45.58v49.7h-45.58zm45.58 0h45.584v49.7h-45.584zm45.584 0h45.58v49.7h-45.58zm45.58 0h45.58v49.7h-45.58zm45.58 0h45.58v49.7h-45.58zm45.58 0h45.58v49.7h-45.58zm45.58 0h45.58v49.7h-45.58zm45.58 0h45.58v49.7h-45.58zm45.58 0h45.58v49.7h-45.58zm45.58 0h45.58v49.7h-45.58zm-410.224 49.7h45.58V497h-45.58zm45.58 0h45.584V497h-45.584zm45.584 0h45.58V497h-45.58zm45.58 0h45.58V497h-45.58zm45.58 0h45.58V497h-45.58zm45.58 0h45.58V497h-45.58zm45.58 0h45.58V497h-45.58zm45.58 0h45.58V497h-45.58zm45.58 0h45.58V497h-45.58zm45.58 0h45.58V497h-45.58z"/></mask><path fill-opacity=".5" d="M455.802 497v.199h45.58v-.398h-45.58zm45.58 0h-.199v49.7h.398V497zm0 49.7v-.199h-45.58v.398h45.58zm-45.58 0h.199V497h-.398v49.7zm45.58-49.7v.199h45.58v-.398h-45.58zm45.58 0h-.199v49.7h.398V497zm0 49.7v-.199h-45.58v.398h45.58zm0-49.7v.199h45.58v-.398h-45.58zm45.58 0h-.199v49.7h.398V497zm0 49.7v-.199h-45.58v.398h45.58zm0-49.7v.199h45.58v-.398h-45.58zm45.58 0h-.198v49.7h.397V497zm0 49.7v-.199h-45.58v.398h45.58zm0-49.7v.199h45.581v-.398h-45.581zm45.581 0h-.199v49.7h.398V497zm0 49.7v-.199h-45.581v.398h45.581zm0-49.7v.199h45.58v-.398h-45.58zm45.58 0h-.199v49.7h.398V497zm0 49.7v-.199h-45.58v.398h45.58zm0-49.7v.199h45.58v-.398h-45.58zm45.58 0h-.199v49.7h.398V497zm0 49.7v-.199h-45.58v.398h45.58zm0-49.7v.199h45.58v-.398h-45.58zm45.58 0h-.199v49.7h.398V497zm0 49.7v-.199h-45.58v.398h45.58zm0-49.7v.199h45.58v-.398h-45.58zm45.58 0h-.199v49.7h.398V497zm0 49.7v-.199h-45.58v.398h45.58zm0-49.7v.199h45.581v-.398h-45.581zm45.581 49.7v-.199h-45.581v.398h45.581zm-410.222 0h-.199v49.7h.398v-49.7zm0 49.7v-.199h-45.58v.398h45.58zm-45.58 0h.199v-49.7h-.398v49.7zm91.16-49.7h-.199v49.7h.398v-49.7zm0 49.7v-.199h-45.58v.398h45.58zm45.58-49.7h-.199v49.7h.398v-49.7zm0 49.7v-.199h-45.58v.398h45.58zm45.58-49.7h-.198v49.7h.397v-49.7zm0 49.7v-.199h-45.58v.398h45.58zm45.581-49.7h-.199v49.7h.398v-49.7zm0 49.7v-.199h-45.581v.398h45.581zm45.58-49.7h-.199v49.7h.398v-49.7zm0 49.7v-.199h-45.58v.398h45.58zm45.58-49.7h-.199v49.7h.398v-49.7zm0 49.7v-.199h-45.58v.398h45.58zm45.58-49.7h-.199v49.7h.398v-49.7zm0 49.7v-.199h-45.58v.398h45.58zm45.58-49.7h-.199v49.7h.398v-49.7zm0 49.7v-.199h-45.58v.398h45.58zm45.581 0v-.199h-45.581v.398h45.581zm-410.222 0h-.199v49.7h.398v-49.7zm0 49.7v-.199h-45.58v.398h45.58zm-45.58 0h.199v-49.7h-.398v49.7zm91.16-49.7h-.199v49.7h.398v-49.7zm0 49.7v-.199h-45.58v.398h45.58zm45.58-49.7h-.199v49.7h.398v-49.7zm0 49.7v-.199h-45.58v.398h45.58zm45.58-49.7h-.198v49.7h.397v-49.7zm0 49.7v-.199h-45.58v.398h45.58zm45.581-49.7h-.199v49.7h.398v-49.7zm0 49.7v-.199h-45.581v.398h45.581zm45.58-49.7h-.199v49.7h.398v-49.7zm0 49.7v-.199h-45.58v.398h45.58zm45.58-49.7h-.199v49.7h.398v-49.7zm0 49.7v-.199h-45.58v.398h45.58zm45.58-49.7h-.199v49.7h.398v-49.7zm0 49.7v-.199h-45.58v.398h45.58zm45.58-49.7h-.199v49.7h.398v-49.7zm0 49.7v-.199h-45.58v.398h45.58zm45.581 0v-.199h-45.581v.398h45.581zm-410.222 0h-.199v49.7h.398v-49.7zm0 49.7v-.199h-45.58v.398h45.58zm-45.58 0h.199v-49.7h-.398v49.7zm91.16-49.7h-.199v49.7h.398v-49.7zm0 49.7v-.199h-45.58v.398h45.58zm45.58-49.7h-.199v49.7h.398v-49.7zm0 49.7v-.199h-45.58v.398h45.58zm45.58-49.7h-.198v49.7h.397v-49.7zm0 49.7v-.199h-45.58v.398h45.58zm45.581-49.7h-.199v49.7h.398v-49.7zm0 49.7v-.199h-45.581v.398h45.581zm45.58-49.7h-.199v49.7h.398v-49.7zm0 49.7v-.199h-45.58v.398h45.58zm45.58-49.7h-.199v49.7h.398v-49.7zm0 49.7v-.199h-45.58v.398h45.58zm45.58-49.7h-.199v49.7h.398v-49.7zm0 49.7v-.199h-45.58v.398h45.58zm45.58-49.7h-.199v49.7h.398v-49.7zm0 49.7v-.199h-45.58v.398h45.58zm45.581 0v-.199h-45.581v.398h45.581zm-410.222 0h-.199v49.7h.398v-49.7zm0 49.7v-.199h-45.58v.398h45.58zm-45.58 0h.199v-49.7h-.398v49.7zm91.16-49.7h-.199v49.7h.398v-49.7zm0 49.7v-.199h-45.58v.398h45.58zm45.58-49.7h-.199v49.7h.398v-49.7zm0 49.7v-.199h-45.58v.398h45.58zm45.58-49.7h-.198v49.7h.397v-49.7zm0 49.7v-.199h-45.58v.398h45.58zm45.581-49.7h-.199v49.7h.398v-49.7zm0 49.7v-.199h-45.581v.398h45.581zm45.58-49.7h-.199v49.7h.398v-49.7zm0 49.7v-.199h-45.58v.398h45.58zm45.58-49.7h-.199v49.7h.398v-49.7zm0 49.7v-.199h-45.58v.398h45.58zm45.58-49.7h-.199v49.7h.398v-49.7zm0 49.7v-.199h-45.58v.398h45.58zm45.58-49.7h-.199v49.7h.398v-49.7zm0 49.7v-.199h-45.58v.398h45.58zm45.581 0v-.199h-45.581v.398h45.581zm-410.222 0h-.199v49.7h.398v-49.7zm0 49.7v-.199h-45.58v.398h45.58zm-45.58 0h.199v-49.7h-.398v49.7zm91.16-49.7h-.199v49.7h.398v-49.7zm0 49.7v-.199h-45.58v.398h45.58zm45.58-49.7h-.199v49.7h.398v-49.7zm0 49.7v-.199h-45.58v.398h45.58zm45.58-49.7h-.198v49.7h.397v-49.7zm0 49.7v-.199h-45.58v.398h45.58zm45.581-49.7h-.199v49.7h.398v-49.7zm0 49.7v-.199h-45.581v.398h45.581zm45.58-49.7h-.199v49.7h.398v-49.7zm0 49.7v-.199h-45.58v.398h45.58zm45.58-49.7h-.199v49.7h.398v-49.7zm0 49.7v-.199h-45.58v.398h45.58zm45.58-49.7h-.199v49.7h.398v-49.7zm0 49.7v-.199h-45.58v.398h45.58zm45.58-49.7h-.199v49.7h.398v-49.7zm0 49.7v-.199h-45.58v.398h45.58zm45.581 0v-.199h-45.581v.398h45.581zm-410.222 0h-.199v49.7h.398v-49.7zm0 49.7v-.199h-45.58v.398h45.58zm-45.58 0h.199v-49.7h-.398v49.7zm91.16-49.7h-.199v49.7h.398v-49.7zm0 49.7v-.199h-45.58v.398h45.58zm45.58-49.7h-.199v49.7h.398v-49.7zm0 49.7v-.199h-45.58v.398h45.58zm45.58-49.7h-.198v49.7h.397v-49.7zm0 49.7v-.199h-45.58v.398h45.58zm45.581-49.7h-.199v49.7h.398v-49.7zm0 49.7v-.199h-45.581v.398h45.581zm45.58-49.7h-.199v49.7h.398v-49.7zm0 49.7v-.199h-45.58v.398h45.58zm45.58-49.7h-.199v49.7h.398v-49.7zm0 49.7v-.199h-45.58v.398h45.58zm45.58-49.7h-.199v49.7h.398v-49.7zm0 49.7v-.199h-45.58v.398h45.58zm45.58-49.7h-.199v49.7h.398v-49.7zm0 49.7v-.199h-45.58v.398h45.58zm45.581 0v-.199h-45.581v.398h45.581zm-410.222 0h-.199v49.7h.398v-49.7zm0 49.7v-.199h-45.58v.398h45.58zm-45.58 0h.199v-49.7h-.398v49.7zm91.16-49.7h-.199v49.7h.398v-49.7zm0 49.7v-.199h-45.58v.398h45.58zm45.58-49.7h-.199v49.7h.398v-49.7zm0 49.7v-.199h-45.58v.398h45.58zm45.58-49.7h-.198v49.7h.397v-49.7zm0 49.7v-.199h-45.58v.398h45.58zm45.581-49.7h-.199v49.7h.398v-49.7zm0 49.7v-.199h-45.581v.398h45.581zm45.58-49.7h-.199v49.7h.398v-49.7zm0 49.7v-.199h-45.58v.398h45.58zm45.58-49.7h-.199v49.7h.398v-49.7zm0 49.7v-.199h-45.58v.398h45.58zm45.58-49.7h-.199v49.7h.398v-49.7zm0 49.7v-.199h-45.58v.398h45.58zm45.58-49.7h-.199v49.7h.398v-49.7zm0 49.7v-.199h-45.58v.398h45.58zm45.581 0v-.199h-45.581v.398h45.581zm-410.222 0h-.199v49.7h.398v-49.7zm0 49.7v-.199h-45.58v.398h45.58zm-45.58 0h.199v-49.7h-.398v49.7zm91.16-49.7h-.199v49.7h.398v-49.7zm0 49.7v-.199h-45.58v.398h45.58zm45.58-49.7h-.199v49.7h.398v-49.7zm0 49.7v-.199h-45.58v.398h45.58zm45.58-49.7h-.198v49.7h.397v-49.7zm0 49.7v-.199h-45.58v.398h45.58zm45.581-49.7h-.199v49.7h.398v-49.7zm0 49.7v-.199h-45.581v.398h45.581zm45.58-49.7h-.199v49.7h.398v-49.7zm0 49.7v-.199h-45.58v.398h45.58zm45.58-49.7h-.199v49.7h.398v-49.7zm0 49.7v-.199h-45.58v.398h45.58zm45.58-49.7h-.199v49.7h.398v-49.7zm0 49.7v-.199h-45.58v.398h45.58zm45.58-49.7h-.199v49.7h.398v-49.7zm0 49.7v-.199h-45.58v.398h45.58zm45.581 0v-.199h-45.581v.398h45.581zm-410.222 0h-.199V994h.398v-49.7zm-45.58 49.7h.199v-49.7h-.398V994zm91.16-49.7h-.199V994h.398v-49.7zm45.58 0h-.199V994h.398v-49.7zm45.58 0h-.198V994h.397v-49.7zm45.581 0h-.199V994h.398v-49.7zm45.58 0h-.199V994h.398v-49.7zm45.58 0h-.199V994h.398v-49.7zm45.58 0h-.199V994h.398v-49.7zm45.58 0h-.199V994h.398v-49.7zM0 497v.199h45.58v-.398H0zm45.58 0h-.199v49.7h.398V497zm0 49.7v-.199H0v.398h45.58zm0-49.7v.199h45.58v-.398H45.58zm45.58 0h-.199v49.7h.398V497zm0 49.7v-.199H45.58v.398h45.58zm0-49.7v.199h45.581v-.398h-45.58zm45.581 0h-.199v49.7h.398V497zm0 49.7v-.199h-45.58v.398h45.58zm0-49.7v.199h45.58v-.398h-45.58zm45.58 0h-.199v49.7h.398V497zm0 49.7v-.199h-45.58v.398h45.58zm0-49.7v.199h45.58v-.398h-45.58zm45.58 0h-.199v49.7h.398V497zm0 49.7v-.199h-45.58v.398h45.58zm0-49.7v.199h45.58v-.398h-45.58zm45.58 0h-.199v49.7h.398V497zm0 49.7v-.199h-45.58v.398h45.58zm0-49.7v.199h45.58v-.398h-45.58zm45.58 0h-.199v49.7h.398V497zm0 49.7v-.199h-45.58v.398h45.58zm0-49.7v.199h45.581v-.398h-45.581zm45.581 0h-.199v49.7h.398V497zm0 49.7v-.199h-45.581v.398h45.581zm0-49.7v.199h45.58v-.398h-45.58zm45.58 0h-.199v49.7h.398V497zm0 49.7v-.199h-45.58v.398h45.58zm0-49.7v.199h45.58v-.398h-45.58zm45.58 49.7v-.199h-45.58v.398h45.58zm-410.222 0h-.199v49.7h.398v-49.7zm0 49.7v-.199H0v.398h45.58zm45.58-49.7h-.199v49.7h.398v-49.7zm0 49.7v-.199H45.58v.398h45.58zm45.581-49.7h-.199v49.7h.398v-49.7zm0 49.7v-.199h-45.58v.398h45.58zm45.58-49.7h-.199v49.7h.398v-49.7zm0 49.7v-.199h-45.58v.398h45.58zm45.58-49.7h-.199v49.7h.398v-49.7zm0 49.7v-.199h-45.58v.398h45.58zm45.58-49.7h-.199v49.7h.398v-49.7zm0 49.7v-.199h-45.58v.398h45.58zm45.58-49.7h-.199v49.7h.398v-49.7zm0 49.7v-.199h-45.58v.398h45.58zm45.581-49.7h-.199v49.7h.398v-49.7zm0 49.7v-.199h-45.581v.398h45.581zm45.58-49.7h-.199v49.7h.398v-49.7zm0 49.7v-.199h-45.58v.398h45.58zm45.58 0v-.199h-45.58v.398h45.58zm-410.222 0h-.199v49.7h.398v-49.7zm0 49.7v-.199H0v.398h45.58zm45.58-49.7h-.199v49.7h.398v-49.7zm0 49.7v-.199H45.58v.398h45.58zm45.581-49.7h-.199v49.7h.398v-49.7zm0 49.7v-.199h-45.58v.398h45.58zm45.58-49.7h-.199v49.7h.398v-49.7zm0 49.7v-.199h-45.58v.398h45.58zm45.58-49.7h-.199v49.7h.398v-49.7zm0 49.7v-.199h-45.58v.398h45.58zm45.58-49.7h-.199v49.7h.398v-49.7zm0 49.7v-.199h-45.58v.398h45.58zm45.58-49.7h-.199v49.7h.398v-49.7zm0 49.7v-.199h-45.58v.398h45.58zm45.581-49.7h-.199v49.7h.398v-49.7zm0 49.7v-.199h-45.581v.398h45.581zm45.58-49.7h-.199v49.7h.398v-49.7zm0 49.7v-.199h-45.58v.398h45.58zm45.58 0v-.199h-45.58v.398h45.58zm-410.222 0h-.199v49.7h.398v-49.7zm0 49.7v-.199H0v.398h45.58zm45.58-49.7h-.199v49.7h.398v-49.7zm0 49.7v-.199H45.58v.398h45.58zm45.581-49.7h-.199v49.7h.398v-49.7zm0 49.7v-.199h-45.58v.398h45.58zm45.58-49.7h-.199v49.7h.398v-49.7zm0 49.7v-.199h-45.58v.398h45.58zm45.58-49.7h-.199v49.7h.398v-49.7zm0 49.7v-.199h-45.58v.398h45.58zm45.58-49.7h-.199v49.7h.398v-49.7zm0 49.7v-.199h-45.58v.398h45.58zm45.58-49.7h-.199v49.7h.398v-49.7zm0 49.7v-.199h-45.58v.398h45.58zm45.581-49.7h-.199v49.7h.398v-49.7zm0 49.7v-.199h-45.581v.398h45.581zm45.58-49.7h-.199v49.7h.398v-49.7zm0 49.7v-.199h-45.58v.398h45.58zm45.58 0v-.199h-45.58v.398h45.58zm-410.222 0h-.199v49.7h.398v-49.7zm0 49.7v-.199H0v.398h45.58zm45.58-49.7h-.199v49.7h.398v-49.7zm0 49.7v-.199H45.58v.398h45.58zm45.581-49.7h-.199v49.7h.398v-49.7zm0 49.7v-.199h-45.58v.398h45.58zm45.58-49.7h-.199v49.7h.398v-49.7zm0 49.7v-.199h-45.58v.398h45.58zm45.58-49.7h-.199v49.7h.398v-49.7zm0 49.7v-.199h-45.58v.398h45.58zm45.58-49.7h-.199v49.7h.398v-49.7zm0 49.7v-.199h-45.58v.398h45.58zm45.58-49.7h-.199v49.7h.398v-49.7zm0 49.7v-.199h-45.58v.398h45.58zm45.581-49.7h-.199v49.7h.398v-49.7zm0 49.7v-.199h-45.581v.398h45.581zm45.58-49.7h-.199v49.7h.398v-49.7zm0 49.7v-.199h-45.58v.398h45.58zm45.58 0v-.199h-45.58v.398h45.58zm-410.222 0h-.199v49.7h.398v-49.7zm0 49.7v-.199H0v.398h45.58zm45.58-49.7h-.199v49.7h.398v-49.7zm0 49.7v-.199H45.58v.398h45.58zm45.581-49.7h-.199v49.7h.398v-49.7zm0 49.7v-.199h-45.58v.398h45.58zm45.58-49.7h-.199v49.7h.398v-49.7zm0 49.7v-.199h-45.58v.398h45.58zm45.58-49.7h-.199v49.7h.398v-49.7zm0 49.7v-.199h-45.58v.398h45.58zm45.58-49.7h-.199v49.7h.398v-49.7zm0 49.7v-.199h-45.58v.398h45.58zm45.58-49.7h-.199v49.7h.398v-49.7zm0 49.7v-.199h-45.58v.398h45.58zm45.581-49.7h-.199v49.7h.398v-49.7zm0 49.7v-.199h-45.581v.398h45.581zm45.58-49.7h-.199v49.7h.398v-49.7zm0 49.7v-.199h-45.58v.398h45.58zm45.58 0v-.199h-45.58v.398h45.58zm-410.222 0h-.199v49.7h.398v-49.7zm0 49.7v-.199H0v.398h45.58zm45.58-49.7h-.199v49.7h.398v-49.7zm0 49.7v-.199H45.58v.398h45.58zm45.581-49.7h-.199v49.7h.398v-49.7zm0 49.7v-.199h-45.58v.398h45.58zm45.58-49.7h-.199v49.7h.398v-49.7zm0 49.7v-.199h-45.58v.398h45.58zm45.58-49.7h-.199v49.7h.398v-49.7zm0 49.7v-.199h-45.58v.398h45.58zm45.58-49.7h-.199v49.7h.398v-49.7zm0 49.7v-.199h-45.58v.398h45.58zm45.58-49.7h-.199v49.7h.398v-49.7zm0 49.7v-.199h-45.58v.398h45.58zm45.581-49.7h-.199v49.7h.398v-49.7zm0 49.7v-.199h-45.581v.398h45.581zm45.58-49.7h-.199v49.7h.398v-49.7zm0 49.7v-.199h-45.58v.398h45.58zm45.58 0v-.199h-45.58v.398h45.58zm-410.222 0h-.199v49.7h.398v-49.7zm0 49.7v-.199H0v.398h45.58zm45.58-49.7h-.199v49.7h.398v-49.7zm0 49.7v-.199H45.58v.398h45.58zm45.581-49.7h-.199v49.7h.398v-49.7zm0 49.7v-.199h-45.58v.398h45.58zm45.58-49.7h-.199v49.7h.398v-49.7zm0 49.7v-.199h-45.58v.398h45.58zm45.58-49.7h-.199v49.7h.398v-49.7zm0 49.7v-.199h-45.58v.398h45.58zm45.58-49.7h-.199v49.7h.398v-49.7zm0 49.7v-.199h-45.58v.398h45.58zm45.58-49.7h-.199v49.7h.398v-49.7zm0 49.7v-.199h-45.58v.398h45.58zm45.581-49.7h-.199v49.7h.398v-49.7zm0 49.7v-.199h-45.581v.398h45.581zm45.58-49.7h-.199v49.7h.398v-49.7zm0 49.7v-.199h-45.58v.398h45.58zm45.58 0v-.199h-45.58v.398h45.58zm-410.222 0h-.199v49.7h.398v-49.7zm0 49.7v-.199H0v.398h45.58zm45.58-49.7h-.199v49.7h.398v-49.7zm0 49.7v-.199H45.58v.398h45.58zm45.581-49.7h-.199v49.7h.398v-49.7zm0 49.7v-.199h-45.58v.398h45.58zm45.58-49.7h-.199v49.7h.398v-49.7zm0 49.7v-.199h-45.58v.398h45.58zm45.58-49.7h-.199v49.7h.398v-49.7zm0 49.7v-.199h-45.58v.398h45.58zm45.58-49.7h-.199v49.7h.398v-49.7zm0 49.7v-.199h-45.58v.398h45.58zm45.58-49.7h-.199v49.7h.398v-49.7zm0 49.7v-.199h-45.58v.398h45.58zm45.581-49.7h-.199v49.7h.398v-49.7zm0 49.7v-.199h-45.581v.398h45.581zm45.58-49.7h-.199v49.7h.398v-49.7zm0 49.7v-.199h-45.58v.398h45.58zm45.58 0v-.199h-45.58v.398h45.58zm-410.222 0h-.199V994h.398v-49.7zm45.58 0h-.199V994h.398v-49.7zm45.581 0h-.199V994h.398v-49.7zm45.58 0h-.199V994h.398v-49.7zm45.58 0h-.199V994h.398v-49.7zm45.58 0h-.199V994h.398v-49.7zm45.58 0h-.199V994h.398v-49.7zm45.581 0h-.199V994h.398v-49.7zm45.58 0h-.199V994h.398v-49.7zM1367.2 497v.199h45.58v-.398h-45.58zm45.58 0h-.2v49.7h.4V497zm0 49.7v-.199h-45.58v.398h45.58zm-45.58 0h.2V497h-.4v49.7zm45.58-49.7v.199h45.58v-.398h-45.58zm45.58 0h-.2v49.7h.4V497zm0 49.7v-.199h-45.58v.398h45.58zm0-49.7v.199h45.58v-.398h-45.58zm45.58 0h-.2v49.7h.4V497zm0 49.7v-.199h-45.58v.398h45.58zm0-49.7v.199h45.58v-.398h-45.58zm45.58 0h-.2v49.7h.4V497zm0 49.7v-.199h-45.58v.398h45.58zm0-49.7v.199h45.58v-.398h-45.58zm45.58 0h-.2v49.7h.4V497zm0 49.7v-.199h-45.58v.398h45.58zm0-49.7v.199h45.58v-.398h-45.58zm45.58 0h-.2v49.7h.4V497zm0 49.7v-.199h-45.58v.398h45.58zm0-49.7v.199h45.58v-.398h-45.58zm45.58 0h-.2v49.7h.4V497zm0 49.7v-.199h-45.58v.398h45.58zm0-49.7v.199h45.58v-.398h-45.58zm45.58 0h-.2v49.7h.4V497zm0 49.7v-.199h-45.58v.398h45.58zm0-49.7v.199h45.58v-.398h-45.58zm45.58 0h-.2v49.7h.4V497zm0 49.7v-.199h-45.58v.398h45.58zm0-49.7v.199H1823v-.398h-45.58zm45.58 49.7v-.199h-45.58v.398H1823zm-410.22 0h-.2v49.7h.4v-49.7zm0 49.7v-.199h-45.58v.398h45.58zm-45.58 0h.2v-49.7h-.4v49.7zm91.16-49.7h-.2v49.7h.4v-49.7zm0 49.7v-.199h-45.58v.398h45.58zm45.58-49.7h-.2v49.7h.4v-49.7zm0 49.7v-.199h-45.58v.398h45.58zm45.58-49.7h-.2v49.7h.4v-49.7zm0 49.7v-.199h-45.58v.398h45.58zm45.58-49.7h-.2v49.7h.4v-49.7zm0 49.7v-.199h-45.58v.398h45.58zm45.58-49.7h-.2v49.7h.4v-49.7zm0 49.7v-.199h-45.58v.398h45.58zm45.58-49.7h-.2v49.7h.4v-49.7zm0 49.7v-.199h-45.58v.398h45.58zm45.58-49.7h-.2v49.7h.4v-49.7zm0 49.7v-.199h-45.58v.398h45.58zm45.58-49.7h-.2v49.7h.4v-49.7zm0 49.7v-.199h-45.58v.398h45.58zm45.58 0v-.199h-45.58v.398H1823zm-410.22 0h-.2v49.7h.4v-49.7zm0 49.7v-.199h-45.58v.398h45.58zm-45.58 0h.2v-49.7h-.4v49.7zm91.16-49.7h-.2v49.7h.4v-49.7zm0 49.7v-.199h-45.58v.398h45.58zm45.58-49.7h-.2v49.7h.4v-49.7zm0 49.7v-.199h-45.58v.398h45.58zm45.58-49.7h-.2v49.7h.4v-49.7zm0 49.7v-.199h-45.58v.398h45.58zm45.58-49.7h-.2v49.7h.4v-49.7zm0 49.7v-.199h-45.58v.398h45.58zm45.58-49.7h-.2v49.7h.4v-49.7zm0 49.7v-.199h-45.58v.398h45.58zm45.58-49.7h-.2v49.7h.4v-49.7zm0 49.7v-.199h-45.58v.398h45.58zm45.58-49.7h-.2v49.7h.4v-49.7zm0 49.7v-.199h-45.58v.398h45.58zm45.58-49.7h-.2v49.7h.4v-49.7zm0 49.7v-.199h-45.58v.398h45.58zm45.58 0v-.199h-45.58v.398H1823zm-410.22 0h-.2v49.7h.4v-49.7zm0 49.7v-.199h-45.58v.398h45.58zm-45.58 0h.2v-49.7h-.4v49.7zm91.16-49.7h-.2v49.7h.4v-49.7zm0 49.7v-.199h-45.58v.398h45.58zm45.58-49.7h-.2v49.7h.4v-49.7zm0 49.7v-.199h-45.58v.398h45.58zm45.58-49.7h-.2v49.7h.4v-49.7zm0 49.7v-.199h-45.58v.398h45.58zm45.58-49.7h-.2v49.7h.4v-49.7zm0 49.7v-.199h-45.58v.398h45.58zm45.58-49.7h-.2v49.7h.4v-49.7zm0 49.7v-.199h-45.58v.398h45.58zm45.58-49.7h-.2v49.7h.4v-49.7zm0 49.7v-.199h-45.58v.398h45.58zm45.58-49.7h-.2v49.7h.4v-49.7zm0 49.7v-.199h-45.58v.398h45.58zm45.58-49.7h-.2v49.7h.4v-49.7zm0 49.7v-.199h-45.58v.398h45.58zm45.58 0v-.199h-45.58v.398H1823zm-410.22 0h-.2v49.7h.4v-49.7zm0 49.7v-.199h-45.58v.398h45.58zm-45.58 0h.2v-49.7h-.4v49.7zm91.16-49.7h-.2v49.7h.4v-49.7zm0 49.7v-.199h-45.58v.398h45.58zm45.58-49.7h-.2v49.7h.4v-49.7zm0 49.7v-.199h-45.58v.398h45.58zm45.58-49.7h-.2v49.7h.4v-49.7zm0 49.7v-.199h-45.58v.398h45.58zm45.58-49.7h-.2v49.7h.4v-49.7zm0 49.7v-.199h-45.58v.398h45.58zm45.58-49.7h-.2v49.7h.4v-49.7zm0 49.7v-.199h-45.58v.398h45.58zm45.58-49.7h-.2v49.7h.4v-49.7zm0 49.7v-.199h-45.58v.398h45.58zm45.58-49.7h-.2v49.7h.4v-49.7zm0 49.7v-.199h-45.58v.398h45.58zm45.58-49.7h-.2v49.7h.4v-49.7zm0 49.7v-.199h-45.58v.398h45.58zm45.58 0v-.199h-45.58v.398H1823zm-410.22 0h-.2v49.7h.4v-49.7zm0 49.7v-.199h-45.58v.398h45.58zm-45.58 0h.2v-49.7h-.4v49.7zm91.16-49.7h-.2v49.7h.4v-49.7zm0 49.7v-.199h-45.58v.398h45.58zm45.58-49.7h-.2v49.7h.4v-49.7zm0 49.7v-.199h-45.58v.398h45.58zm45.58-49.7h-.2v49.7h.4v-49.7zm0 49.7v-.199h-45.58v.398h45.58zm45.58-49.7h-.2v49.7h.4v-49.7zm0 49.7v-.199h-45.58v.398h45.58zm45.58-49.7h-.2v49.7h.4v-49.7zm0 49.7v-.199h-45.58v.398h45.58zm45.58-49.7h-.2v49.7h.4v-49.7zm0 49.7v-.199h-45.58v.398h45.58zm45.58-49.7h-.2v49.7h.4v-49.7zm0 49.7v-.199h-45.58v.398h45.58zm45.58-49.7h-.2v49.7h.4v-49.7zm0 49.7v-.199h-45.58v.398h45.58zm45.58 0v-.199h-45.58v.398H1823zm-410.22 0h-.2v49.7h.4v-49.7zm0 49.7v-.199h-45.58v.398h45.58zm-45.58 0h.2v-49.7h-.4v49.7zm91.16-49.7h-.2v49.7h.4v-49.7zm0 49.7v-.199h-45.58v.398h45.58zm45.58-49.7h-.2v49.7h.4v-49.7zm0 49.7v-.199h-45.58v.398h45.58zm45.58-49.7h-.2v49.7h.4v-49.7zm0 49.7v-.199h-45.58v.398h45.58zm45.58-49.7h-.2v49.7h.4v-49.7zm0 49.7v-.199h-45.58v.398h45.58zm45.58-49.7h-.2v49.7h.4v-49.7zm0 49.7v-.199h-45.58v.398h45.58zm45.58-49.7h-.2v49.7h.4v-49.7zm0 49.7v-.199h-45.58v.398h45.58zm45.58-49.7h-.2v49.7h.4v-49.7zm0 49.7v-.199h-45.58v.398h45.58zm45.58-49.7h-.2v49.7h.4v-49.7zm0 49.7v-.199h-45.58v.398h45.58zm45.58 0v-.199h-45.58v.398H1823zm-410.22 0h-.2v49.7h.4v-49.7zm0 49.7v-.199h-45.58v.398h45.58zm-45.58 0h.2v-49.7h-.4v49.7zm91.16-49.7h-.2v49.7h.4v-49.7zm0 49.7v-.199h-45.58v.398h45.58zm45.58-49.7h-.2v49.7h.4v-49.7zm0 49.7v-.199h-45.58v.398h45.58zm45.58-49.7h-.2v49.7h.4v-49.7zm0 49.7v-.199h-45.58v.398h45.58zm45.58-49.7h-.2v49.7h.4v-49.7zm0 49.7v-.199h-45.58v.398h45.58zm45.58-49.7h-.2v49.7h.4v-49.7zm0 49.7v-.199h-45.58v.398h45.58zm45.58-49.7h-.2v49.7h.4v-49.7zm0 49.7v-.199h-45.58v.398h45.58zm45.58-49.7h-.2v49.7h.4v-49.7zm0 49.7v-.199h-45.58v.398h45.58zm45.58-49.7h-.2v49.7h.4v-49.7zm0 49.7v-.199h-45.58v.398h45.58zm45.58 0v-.199h-45.58v.398H1823zm-410.22 0h-.2v49.7h.4v-49.7zm0 49.7v-.199h-45.58v.398h45.58zm-45.58 0h.2v-49.7h-.4v49.7zm91.16-49.7h-.2v49.7h.4v-49.7zm0 49.7v-.199h-45.58v.398h45.58zm45.58-49.7h-.2v49.7h.4v-49.7zm0 49.7v-.199h-45.58v.398h45.58zm45.58-49.7h-.2v49.7h.4v-49.7zm0 49.7v-.199h-45.58v.398h45.58zm45.58-49.7h-.2v49.7h.4v-49.7zm0 49.7v-.199h-45.58v.398h45.58zm45.58-49.7h-.2v49.7h.4v-49.7zm0 49.7v-.199h-45.58v.398h45.58zm45.58-49.7h-.2v49.7h.4v-49.7zm0 49.7v-.199h-45.58v.398h45.58zm45.58-49.7h-.2v49.7h.4v-49.7zm0 49.7v-.199h-45.58v.398h45.58zm45.58-49.7h-.2v49.7h.4v-49.7zm0 49.7v-.199h-45.58v.398h45.58zm45.58 0v-.199h-45.58v.398H1823zm-410.22 0h-.2V994h.4v-49.7zM1367.2 994h.2v-49.7h-.4V994zm91.16-49.7h-.2V994h.4v-49.7zm45.58 0h-.2V994h.4v-49.7zm45.58 0h-.2V994h.4v-49.7zm45.58 0h-.2V994h.4v-49.7zm45.58 0h-.2V994h.4v-49.7zm45.58 0h-.2V994h.4v-49.7zm45.58 0h-.2V994h.4v-49.7zm45.58 0h-.2V994h.4v-49.7zM911.396 497v.199h45.58v-.398h-45.58zm45.58 0h-.199v49.7h.398V497zm0 49.7v-.199h-45.58v.398h45.58zm0-49.7v.199h45.584v-.398h-45.584zm45.584 0h-.2v49.7h.4V497zm0 49.7v-.199h-45.584v.398h45.584zm0-49.7v.199h45.58v-.398h-45.58zm45.58 0h-.2v49.7h.4V497zm0 49.7v-.199h-45.58v.398h45.58zm0-49.7v.199h45.58v-.398h-45.58zm45.58 0h-.2v49.7h.4V497zm0 49.7v-.199h-45.58v.398h45.58zm0-49.7v.199h45.58v-.398h-45.58zm45.58 0h-.2v49.7h.4V497zm0 49.7v-.199h-45.58v.398h45.58zm0-49.7v.199h45.58v-.398h-45.58zm45.58 0h-.2v49.7h.4V497zm0 49.7v-.199h-45.58v.398h45.58zm0-49.7v.199h45.58v-.398h-45.58zm45.58 0h-.2v49.7h.4V497zm0 49.7v-.199h-45.58v.398h45.58zm0-49.7v.199h45.58v-.398h-45.58zm45.58 0h-.2v49.7h.4V497zm0 49.7v-.199h-45.58v.398h45.58zm0-49.7v.199h45.58v-.398h-45.58zm45.58 0h-.2v49.7h.4V497zm0 49.7v-.199h-45.58v.398h45.58zm0-49.7v.199h45.58v-.398h-45.58zm45.58 49.7v-.199h-45.58v.398h45.58zm-410.224 0h-.199v49.7h.398v-49.7zm0 49.7v-.199h-45.58v.398h45.58zm45.584-49.7h-.2v49.7h.4v-49.7zm0 49.7v-.199h-45.584v.398h45.584zm45.58-49.7h-.2v49.7h.4v-49.7zm0 49.7v-.199h-45.58v.398h45.58zm45.58-49.7h-.2v49.7h.4v-49.7zm0 49.7v-.199h-45.58v.398h45.58zm45.58-49.7h-.2v49.7h.4v-49.7zm0 49.7v-.199h-45.58v.398h45.58zm45.58-49.7h-.2v49.7h.4v-49.7zm0 49.7v-.199h-45.58v.398h45.58zm45.58-49.7h-.2v49.7h.4v-49.7zm0 49.7v-.199h-45.58v.398h45.58zm45.58-49.7h-.2v49.7h.4v-49.7zm0 49.7v-.199h-45.58v.398h45.58zm45.58-49.7h-.2v49.7h.4v-49.7zm0 49.7v-.199h-45.58v.398h45.58zm45.58 0v-.199h-45.58v.398h45.58zm-410.224 0h-.199v49.7h.398v-49.7zm0 49.7v-.199h-45.58v.398h45.58zm45.584-49.7h-.2v49.7h.4v-49.7zm0 49.7v-.199h-45.584v.398h45.584zm45.58-49.7h-.2v49.7h.4v-49.7zm0 49.7v-.199h-45.58v.398h45.58zm45.58-49.7h-.2v49.7h.4v-49.7zm0 49.7v-.199h-45.58v.398h45.58zm45.58-49.7h-.2v49.7h.4v-49.7zm0 49.7v-.199h-45.58v.398h45.58zm45.58-49.7h-.2v49.7h.4v-49.7zm0 49.7v-.199h-45.58v.398h45.58zm45.58-49.7h-.2v49.7h.4v-49.7zm0 49.7v-.199h-45.58v.398h45.58zm45.58-49.7h-.2v49.7h.4v-49.7zm0 49.7v-.199h-45.58v.398h45.58zm45.58-49.7h-.2v49.7h.4v-49.7zm0 49.7v-.199h-45.58v.398h45.58zm45.58 0v-.199h-45.58v.398h45.58zm-410.224 0h-.199v49.7h.398v-49.7zm0 49.7v-.199h-45.58v.398h45.58zm45.584-49.7h-.2v49.7h.4v-49.7zm0 49.7v-.199h-45.584v.398h45.584zm45.58-49.7h-.2v49.7h.4v-49.7zm0 49.7v-.199h-45.58v.398h45.58zm45.58-49.7h-.2v49.7h.4v-49.7zm0 49.7v-.199h-45.58v.398h45.58zm45.58-49.7h-.2v49.7h.4v-49.7zm0 49.7v-.199h-45.58v.398h45.58zm45.58-49.7h-.2v49.7h.4v-49.7zm0 49.7v-.199h-45.58v.398h45.58zm45.58-49.7h-.2v49.7h.4v-49.7zm0 49.7v-.199h-45.58v.398h45.58zm45.58-49.7h-.2v49.7h.4v-49.7zm0 49.7v-.199h-45.58v.398h45.58zm45.58-49.7h-.2v49.7h.4v-49.7zm0 49.7v-.199h-45.58v.398h45.58zm45.58 0v-.199h-45.58v.398h45.58zm-410.224 0h-.199v49.7h.398v-49.7zm0 49.7v-.199h-45.58v.398h45.58zm45.584-49.7h-.2v49.7h.4v-49.7zm0 49.7v-.199h-45.584v.398h45.584zm45.58-49.7h-.2v49.7h.4v-49.7zm0 49.7v-.199h-45.58v.398h45.58zm45.58-49.7h-.2v49.7h.4v-49.7zm0 49.7v-.199h-45.58v.398h45.58zm45.58-49.7h-.2v49.7h.4v-49.7zm0 49.7v-.199h-45.58v.398h45.58zm45.58-49.7h-.2v49.7h.4v-49.7zm0 49.7v-.199h-45.58v.398h45.58zm45.58-49.7h-.2v49.7h.4v-49.7zm0 49.7v-.199h-45.58v.398h45.58zm45.58-49.7h-.2v49.7h.4v-49.7zm0 49.7v-.199h-45.58v.398h45.58zm45.58-49.7h-.2v49.7h.4v-49.7zm0 49.7v-.199h-45.58v.398h45.58zm45.58 0v-.199h-45.58v.398h45.58zm-410.224 0h-.199v49.7h.398v-49.7zm0 49.7v-.199h-45.58v.398h45.58zm45.584-49.7h-.2v49.7h.4v-49.7zm0 49.7v-.199h-45.584v.398h45.584zm45.58-49.7h-.2v49.7h.4v-49.7zm0 49.7v-.199h-45.58v.398h45.58zm45.58-49.7h-.2v49.7h.4v-49.7zm0 49.7v-.199h-45.58v.398h45.58zm45.58-49.7h-.2v49.7h.4v-49.7zm0 49.7v-.199h-45.58v.398h45.58zm45.58-49.7h-.2v49.7h.4v-49.7zm0 49.7v-.199h-45.58v.398h45.58zm45.58-49.7h-.2v49.7h.4v-49.7zm0 49.7v-.199h-45.58v.398h45.58zm45.58-49.7h-.2v49.7h.4v-49.7zm0 49.7v-.199h-45.58v.398h45.58zm45.58-49.7h-.2v49.7h.4v-49.7zm0 49.7v-.199h-45.58v.398h45.58zm45.58 0v-.199h-45.58v.398h45.58zm-410.224 0h-.199v49.7h.398v-49.7zm0 49.7v-.199h-45.58v.398h45.58zm45.584-49.7h-.2v49.7h.4v-49.7zm0 49.7v-.199h-45.584v.398h45.584zm45.58-49.7h-.2v49.7h.4v-49.7zm0 49.7v-.199h-45.58v.398h45.58zm45.58-49.7h-.2v49.7h.4v-49.7zm0 49.7v-.199h-45.58v.398h45.58zm45.58-49.7h-.2v49.7h.4v-49.7zm0 49.7v-.199h-45.58v.398h45.58zm45.58-49.7h-.2v49.7h.4v-49.7zm0 49.7v-.199h-45.58v.398h45.58zm45.58-49.7h-.2v49.7h.4v-49.7zm0 49.7v-.199h-45.58v.398h45.58zm45.58-49.7h-.2v49.7h.4v-49.7zm0 49.7v-.199h-45.58v.398h45.58zm45.58-49.7h-.2v49.7h.4v-49.7zm0 49.7v-.199h-45.58v.398h45.58zm45.58 0v-.199h-45.58v.398h45.58zm-410.224 0h-.199v49.7h.398v-49.7zm0 49.7v-.199h-45.58v.398h45.58zm45.584-49.7h-.2v49.7h.4v-49.7zm0 49.7v-.199h-45.584v.398h45.584zm45.58-49.7h-.2v49.7h.4v-49.7zm0 49.7v-.199h-45.58v.398h45.58zm45.58-49.7h-.2v49.7h.4v-49.7zm0 49.7v-.199h-45.58v.398h45.58zm45.58-49.7h-.2v49.7h.4v-49.7zm0 49.7v-.199h-45.58v.398h45.58zm45.58-49.7h-.2v49.7h.4v-49.7zm0 49.7v-.199h-45.58v.398h45.58zm45.58-49.7h-.2v49.7h.4v-49.7zm0 49.7v-.199h-45.58v.398h45.58zm45.58-49.7h-.2v49.7h.4v-49.7zm0 49.7v-.199h-45.58v.398h45.58zm45.58-49.7h-.2v49.7h.4v-49.7zm0 49.7v-.199h-45.58v.398h45.58zm45.58 0v-.199h-45.58v.398h45.58zm-410.224 0h-.199v49.7h.398v-49.7zm0 49.7v-.199h-45.58v.398h45.58zm45.584-49.7h-.2v49.7h.4v-49.7zm0 49.7v-.199h-45.584v.398h45.584zm45.58-49.7h-.2v49.7h.4v-49.7zm0 49.7v-.199h-45.58v.398h45.58zm45.58-49.7h-.2v49.7h.4v-49.7zm0 49.7v-.199h-45.58v.398h45.58zm45.58-49.7h-.2v49.7h.4v-49.7zm0 49.7v-.199h-45.58v.398h45.58zm45.58-49.7h-.2v49.7h.4v-49.7zm0 49.7v-.199h-45.58v.398h45.58zm45.58-49.7h-.2v49.7h.4v-49.7zm0 49.7v-.199h-45.58v.398h45.58zm45.58-49.7h-.2v49.7h.4v-49.7zm0 49.7v-.199h-45.58v.398h45.58zm45.58-49.7h-.2v49.7h.4v-49.7zm0 49.7v-.199h-45.58v.398h45.58zm45.58 0v-.199h-45.58v.398h45.58zm-410.224 0h-.199V994h.398v-49.7zm45.584 0h-.2V994h.4v-49.7zm45.58 0h-.2V994h.4v-49.7zm45.58 0h-.2V994h.4v-49.7zm45.58 0h-.2V994h.4v-49.7zm45.58 0h-.2V994h.4v-49.7zm45.58 0h-.2V994h.4v-49.7zm45.58 0h-.2V994h.4v-49.7zm45.58 0h-.2V994h.4v-49.7zM501.382 0h-.199v49.7h.398V0zm0 49.7v-.199h-45.58v.398h45.58zm-45.58 0h.199V0h-.398v49.7zM546.962 0h-.199v49.7h.398V0zm0 49.7v-.199h-45.58v.398h45.58zM592.542 0h-.199v49.7h.398V0zm0 49.7v-.199h-45.58v.398h45.58zM638.122 0h-.198v49.7h.397V0zm0 49.7v-.199h-45.58v.398h45.58zM683.703 0h-.199v49.7h.398V0zm0 49.7v-.199h-45.581v.398h45.581zM729.283 0h-.199v49.7h.398V0zm0 49.7v-.199h-45.58v.398h45.58zM774.863 0h-.199v49.7h.398V0zm0 49.7v-.199h-45.58v.398h45.58zM820.443 0h-.199v49.7h.398V0zm0 49.7v-.199h-45.58v.398h45.58zM866.023 0h-.199v49.7h.398V0zm0 49.7v-.199h-45.58v.398h45.58zm45.581 0v-.199h-45.581v.398h45.581zm-410.222 0h-.199v49.7h.398V49.7zm0 49.7v-.199h-45.58v.398h45.58zm-45.58 0h.199V49.7h-.398v49.7zm91.16-49.7h-.199v49.7h.398V49.7zm0 49.7v-.199h-45.58v.398h45.58zm45.58-49.7h-.199v49.7h.398V49.7zm0 49.7v-.199h-45.58v.398h45.58zm45.58-49.7h-.198v49.7h.397V49.7zm0 49.7v-.199h-45.58v.398h45.58zm45.581-49.7h-.199v49.7h.398V49.7zm0 49.7v-.199h-45.581v.398h45.581zm45.58-49.7h-.199v49.7h.398V49.7zm0 49.7v-.199h-45.58v.398h45.58zm45.58-49.7h-.199v49.7h.398V49.7zm0 49.7v-.199h-45.58v.398h45.58zm45.58-49.7h-.199v49.7h.398V49.7zm0 49.7v-.199h-45.58v.398h45.58zm45.58-49.7h-.199v49.7h.398V49.7zm0 49.7v-.199h-45.58v.398h45.58zm45.581 0v-.199h-45.581v.398h45.581zm-410.222 0h-.199v49.7h.398V99.4zm0 49.7v-.199h-45.58v.398h45.58zm-45.58 0h.199V99.4h-.398v49.7zm91.16-49.7h-.199v49.7h.398V99.4zm0 49.7v-.199h-45.58v.398h45.58zm45.58-49.7h-.199v49.7h.398V99.4zm0 49.7v-.199h-45.58v.398h45.58zm45.58-49.7h-.198v49.7h.397V99.4zm0 49.7v-.199h-45.58v.398h45.58zm45.581-49.7h-.199v49.7h.398V99.4zm0 49.7v-.199h-45.581v.398h45.581zm45.58-49.7h-.199v49.7h.398V99.4zm0 49.7v-.199h-45.58v.398h45.58zm45.58-49.7h-.199v49.7h.398V99.4zm0 49.7v-.199h-45.58v.398h45.58zm45.58-49.7h-.199v49.7h.398V99.4zm0 49.7v-.199h-45.58v.398h45.58zm45.58-49.7h-.199v49.7h.398V99.4zm0 49.7v-.199h-45.58v.398h45.58zm45.581 0v-.199h-45.581v.398h45.581zm-410.222 0h-.199v49.7h.398v-49.7zm0 49.7v-.199h-45.58v.398h45.58zm-45.58 0h.199v-49.7h-.398v49.7zm91.16-49.7h-.199v49.7h.398v-49.7zm0 49.7v-.199h-45.58v.398h45.58zm45.58-49.7h-.199v49.7h.398v-49.7zm0 49.7v-.199h-45.58v.398h45.58zm45.58-49.7h-.198v49.7h.397v-49.7zm0 49.7v-.199h-45.58v.398h45.58zm45.581-49.7h-.199v49.7h.398v-49.7zm0 49.7v-.199h-45.581v.398h45.581zm45.58-49.7h-.199v49.7h.398v-49.7zm0 49.7v-.199h-45.58v.398h45.58zm45.58-49.7h-.199v49.7h.398v-49.7zm0 49.7v-.199h-45.58v.398h45.58zm45.58-49.7h-.199v49.7h.398v-49.7zm0 49.7v-.199h-45.58v.398h45.58zm45.58-49.7h-.199v49.7h.398v-49.7zm0 49.7v-.199h-45.58v.398h45.58zm45.581 0v-.199h-45.581v.398h45.581zm-410.222 0h-.199v49.7h.398v-49.7zm0 49.7v-.199h-45.58v.398h45.58zm-45.58 0h.199v-49.7h-.398v49.7zm91.16-49.7h-.199v49.7h.398v-49.7zm0 49.7v-.199h-45.58v.398h45.58zm45.58-49.7h-.199v49.7h.398v-49.7zm0 49.7v-.199h-45.58v.398h45.58zm45.58-49.7h-.198v49.7h.397v-49.7zm0 49.7v-.199h-45.58v.398h45.58zm45.581-49.7h-.199v49.7h.398v-49.7zm0 49.7v-.199h-45.581v.398h45.581zm45.58-49.7h-.199v49.7h.398v-49.7zm0 49.7v-.199h-45.58v.398h45.58zm45.58-49.7h-.199v49.7h.398v-49.7zm0 49.7v-.199h-45.58v.398h45.58zm45.58-49.7h-.199v49.7h.398v-49.7zm0 49.7v-.199h-45.58v.398h45.58zm45.58-49.7h-.199v49.7h.398v-49.7zm0 49.7v-.199h-45.58v.398h45.58zm45.581 0v-.199h-45.581v.398h45.581zm-410.222 0h-.199v49.7h.398v-49.7zm0 49.7v-.199h-45.58v.398h45.58zm-45.58 0h.199v-49.7h-.398v49.7zm91.16-49.7h-.199v49.7h.398v-49.7zm0 49.7v-.199h-45.58v.398h45.58zm45.58-49.7h-.199v49.7h.398v-49.7zm0 49.7v-.199h-45.58v.398h45.58zm45.58-49.7h-.198v49.7h.397v-49.7zm0 49.7v-.199h-45.58v.398h45.58zm45.581-49.7h-.199v49.7h.398v-49.7zm0 49.7v-.199h-45.581v.398h45.581zm45.58-49.7h-.199v49.7h.398v-49.7zm0 49.7v-.199h-45.58v.398h45.58zm45.58-49.7h-.199v49.7h.398v-49.7zm0 49.7v-.199h-45.58v.398h45.58zm45.58-49.7h-.199v49.7h.398v-49.7zm0 49.7v-.199h-45.58v.398h45.58zm45.58-49.7h-.199v49.7h.398v-49.7zm0 49.7v-.199h-45.58v.398h45.58zm45.581 0v-.199h-45.581v.398h45.581zm-410.222 0h-.199v49.7h.398v-49.7zm0 49.7v-.199h-45.58v.398h45.58zm-45.58 0h.199v-49.7h-.398v49.7zm91.16-49.7h-.199v49.7h.398v-49.7zm0 49.7v-.199h-45.58v.398h45.58zm45.58-49.7h-.199v49.7h.398v-49.7zm0 49.7v-.199h-45.58v.398h45.58zm45.58-49.7h-.198v49.7h.397v-49.7zm0 49.7v-.199h-45.58v.398h45.58zm45.581-49.7h-.199v49.7h.398v-49.7zm0 49.7v-.199h-45.581v.398h45.581zm45.58-49.7h-.199v49.7h.398v-49.7zm0 49.7v-.199h-45.58v.398h45.58zm45.58-49.7h-.199v49.7h.398v-49.7zm0 49.7v-.199h-45.58v.398h45.58zm45.58-49.7h-.199v49.7h.398v-49.7zm0 49.7v-.199h-45.58v.398h45.58zm45.58-49.7h-.199v49.7h.398v-49.7zm0 49.7v-.199h-45.58v.398h45.58zm45.581 0v-.199h-45.581v.398h45.581zm-410.222 0h-.199v49.7h.398v-49.7zm0 49.7v-.199h-45.58v.398h45.58zm-45.58 0h.199v-49.7h-.398v49.7zm91.16-49.7h-.199v49.7h.398v-49.7zm0 49.7v-.199h-45.58v.398h45.58zm45.58-49.7h-.199v49.7h.398v-49.7zm0 49.7v-.199h-45.58v.398h45.58zm45.58-49.7h-.198v49.7h.397v-49.7zm0 49.7v-.199h-45.58v.398h45.58zm45.581-49.7h-.199v49.7h.398v-49.7zm0 49.7v-.199h-45.581v.398h45.581zm45.58-49.7h-.199v49.7h.398v-49.7zm0 49.7v-.199h-45.58v.398h45.58zm45.58-49.7h-.199v49.7h.398v-49.7zm0 49.7v-.199h-45.58v.398h45.58zm45.58-49.7h-.199v49.7h.398v-49.7zm0 49.7v-.199h-45.58v.398h45.58zm45.58-49.7h-.199v49.7h.398v-49.7zm0 49.7v-.199h-45.58v.398h45.58zm45.581 0v-.199h-45.581v.398h45.581zm-410.222 0h-.199v49.7h.398v-49.7zm0 49.7v-.199h-45.58v.398h45.58zm-45.58 0h.199v-49.7h-.398v49.7zm91.16-49.7h-.199v49.7h.398v-49.7zm0 49.7v-.199h-45.58v.398h45.58zm45.58-49.7h-.199v49.7h.398v-49.7zm0 49.7v-.199h-45.58v.398h45.58zm45.58-49.7h-.198v49.7h.397v-49.7zm0 49.7v-.199h-45.58v.398h45.58zm45.581-49.7h-.199v49.7h.398v-49.7zm0 49.7v-.199h-45.581v.398h45.581zm45.58-49.7h-.199v49.7h.398v-49.7zm0 49.7v-.199h-45.58v.398h45.58zm45.58-49.7h-.199v49.7h.398v-49.7zm0 49.7v-.199h-45.58v.398h45.58zm45.58-49.7h-.199v49.7h.398v-49.7zm0 49.7v-.199h-45.58v.398h45.58zm45.58-49.7h-.199v49.7h.398v-49.7zm0 49.7v-.199h-45.58v.398h45.58zm45.581 0v-.199h-45.581v.398h45.581zm-410.222 0h-.199V497h.398v-49.7zm-45.58 49.7h.199v-49.7h-.398V497zm91.16-49.7h-.199V497h.398v-49.7zm45.58 0h-.199V497h.398v-49.7zm45.58 0h-.198V497h.397v-49.7zm45.581 0h-.199V497h.398v-49.7zm45.58 0h-.199V497h.398v-49.7zm45.58 0h-.199V497h.398v-49.7zm45.58 0h-.199V497h.398v-49.7zm45.58 0h-.199V497h.398v-49.7zM45.58 0h-.199v49.7h.398V0zm0 49.7v-.199H0v.398h45.58zM91.16 0h-.199v49.7h.398V0zm0 49.7v-.199H45.58v.398h45.58zM136.741 0h-.199v49.7h.398V0zm0 49.7v-.199h-45.58v.398h45.58zM182.321 0h-.199v49.7h.398V0zm0 49.7v-.199h-45.58v.398h45.58zM227.901 0h-.199v49.7h.398V0zm0 49.7v-.199h-45.58v.398h45.58zM273.481 0h-.199v49.7h.398V0zm0 49.7v-.199h-45.58v.398h45.58zM319.061 0h-.199v49.7h.398V0zm0 49.7v-.199h-45.58v.398h45.58zM364.642 0h-.199v49.7h.398V0zm0 49.7v-.199h-45.581v.398h45.581zM410.222 0h-.199v49.7h.398V0zm0 49.7v-.199h-45.58v.398h45.58zm45.58 0v-.199h-45.58v.398h45.58zm-410.222 0h-.199v49.7h.398V49.7zm0 49.7v-.199H0v.398h45.58zm45.58-49.7h-.199v49.7h.398V49.7zm0 49.7v-.199H45.58v.398h45.58zm45.581-49.7h-.199v49.7h.398V49.7zm0 49.7v-.199h-45.58v.398h45.58zm45.58-49.7h-.199v49.7h.398V49.7zm0 49.7v-.199h-45.58v.398h45.58zm45.58-49.7h-.199v49.7h.398V49.7zm0 49.7v-.199h-45.58v.398h45.58zm45.58-49.7h-.199v49.7h.398V49.7zm0 49.7v-.199h-45.58v.398h45.58zm45.58-49.7h-.199v49.7h.398V49.7zm0 49.7v-.199h-45.58v.398h45.58zm45.581-49.7h-.199v49.7h.398V49.7zm0 49.7v-.199h-45.581v.398h45.581zm45.58-49.7h-.199v49.7h.398V49.7zm0 49.7v-.199h-45.58v.398h45.58zm45.58 0v-.199h-45.58v.398h45.58zm-410.222 0h-.199v49.7h.398V99.4zm0 49.7v-.199H0v.398h45.58zm45.58-49.7h-.199v49.7h.398V99.4zm0 49.7v-.199H45.58v.398h45.58zm45.581-49.7h-.199v49.7h.398V99.4zm0 49.7v-.199h-45.58v.398h45.58zm45.58-49.7h-.199v49.7h.398V99.4zm0 49.7v-.199h-45.58v.398h45.58zm45.58-49.7h-.199v49.7h.398V99.4zm0 49.7v-.199h-45.58v.398h45.58zm45.58-49.7h-.199v49.7h.398V99.4zm0 49.7v-.199h-45.58v.398h45.58zm45.58-49.7h-.199v49.7h.398V99.4zm0 49.7v-.199h-45.58v.398h45.58zm45.581-49.7h-.199v49.7h.398V99.4zm0 49.7v-.199h-45.581v.398h45.581zm45.58-49.7h-.199v49.7h.398V99.4zm0 49.7v-.199h-45.58v.398h45.58zm45.58 0v-.199h-45.58v.398h45.58zm-410.222 0h-.199v49.7h.398v-49.7zm0 49.7v-.199H0v.398h45.58zm45.58-49.7h-.199v49.7h.398v-49.7zm0 49.7v-.199H45.58v.398h45.58zm45.581-49.7h-.199v49.7h.398v-49.7zm0 49.7v-.199h-45.58v.398h45.58zm45.58-49.7h-.199v49.7h.398v-49.7zm0 49.7v-.199h-45.58v.398h45.58zm45.58-49.7h-.199v49.7h.398v-49.7zm0 49.7v-.199h-45.58v.398h45.58zm45.58-49.7h-.199v49.7h.398v-49.7zm0 49.7v-.199h-45.58v.398h45.58zm45.58-49.7h-.199v49.7h.398v-49.7zm0 49.7v-.199h-45.58v.398h45.58zm45.581-49.7h-.199v49.7h.398v-49.7zm0 49.7v-.199h-45.581v.398h45.581zm45.58-49.7h-.199v49.7h.398v-49.7zm0 49.7v-.199h-45.58v.398h45.58zm45.58 0v-.199h-45.58v.398h45.58zm-410.222 0h-.199v49.7h.398v-49.7zm0 49.7v-.199H0v.398h45.58zm45.58-49.7h-.199v49.7h.398v-49.7zm0 49.7v-.199H45.58v.398h45.58zm45.581-49.7h-.199v49.7h.398v-49.7zm0 49.7v-.199h-45.58v.398h45.58zm45.58-49.7h-.199v49.7h.398v-49.7zm0 49.7v-.199h-45.58v.398h45.58zm45.58-49.7h-.199v49.7h.398v-49.7zm0 49.7v-.199h-45.58v.398h45.58zm45.58-49.7h-.199v49.7h.398v-49.7zm0 49.7v-.199h-45.58v.398h45.58zm45.58-49.7h-.199v49.7h.398v-49.7zm0 49.7v-.199h-45.58v.398h45.58zm45.581-49.7h-.199v49.7h.398v-49.7zm0 49.7v-.199h-45.581v.398h45.581zm45.58-49.7h-.199v49.7h.398v-49.7zm0 49.7v-.199h-45.58v.398h45.58zm45.58 0v-.199h-45.58v.398h45.58zm-410.222 0h-.199v49.7h.398v-49.7zm0 49.7v-.199H0v.398h45.58zm45.58-49.7h-.199v49.7h.398v-49.7zm0 49.7v-.199H45.58v.398h45.58zm45.581-49.7h-.199v49.7h.398v-49.7zm0 49.7v-.199h-45.58v.398h45.58zm45.58-49.7h-.199v49.7h.398v-49.7zm0 49.7v-.199h-45.58v.398h45.58zm45.58-49.7h-.199v49.7h.398v-49.7zm0 49.7v-.199h-45.58v.398h45.58zm45.58-49.7h-.199v49.7h.398v-49.7zm0 49.7v-.199h-45.58v.398h45.58zm45.58-49.7h-.199v49.7h.398v-49.7zm0 49.7v-.199h-45.58v.398h45.58zm45.581-49.7h-.199v49.7h.398v-49.7zm0 49.7v-.199h-45.581v.398h45.581zm45.58-49.7h-.199v49.7h.398v-49.7zm0 49.7v-.199h-45.58v.398h45.58zm45.58 0v-.199h-45.58v.398h45.58zm-410.222 0h-.199v49.7h.398v-49.7zm0 49.7v-.199H0v.398h45.58zm45.58-49.7h-.199v49.7h.398v-49.7zm0 49.7v-.199H45.58v.398h45.58zm45.581-49.7h-.199v49.7h.398v-49.7zm0 49.7v-.199h-45.58v.398h45.58zm45.58-49.7h-.199v49.7h.398v-49.7zm0 49.7v-.199h-45.58v.398h45.58zm45.58-49.7h-.199v49.7h.398v-49.7zm0 49.7v-.199h-45.58v.398h45.58zm45.58-49.7h-.199v49.7h.398v-49.7zm0 49.7v-.199h-45.58v.398h45.58zm45.58-49.7h-.199v49.7h.398v-49.7zm0 49.7v-.199h-45.58v.398h45.58zm45.581-49.7h-.199v49.7h.398v-49.7zm0 49.7v-.199h-45.581v.398h45.581zm45.58-49.7h-.199v49.7h.398v-49.7zm0 49.7v-.199h-45.58v.398h45.58zm45.58 0v-.199h-45.58v.398h45.58zm-410.222 0h-.199v49.7h.398v-49.7zm0 49.7v-.199H0v.398h45.58zm45.58-49.7h-.199v49.7h.398v-49.7zm0 49.7v-.199H45.58v.398h45.58zm45.581-49.7h-.199v49.7h.398v-49.7zm0 49.7v-.199h-45.58v.398h45.58zm45.58-49.7h-.199v49.7h.398v-49.7zm0 49.7v-.199h-45.58v.398h45.58zm45.58-49.7h-.199v49.7h.398v-49.7zm0 49.7v-.199h-45.58v.398h45.58zm45.58-49.7h-.199v49.7h.398v-49.7zm0 49.7v-.199h-45.58v.398h45.58zm45.58-49.7h-.199v49.7h.398v-49.7zm0 49.7v-.199h-45.58v.398h45.58zm45.581-49.7h-.199v49.7h.398v-49.7zm0 49.7v-.199h-45.581v.398h45.581zm45.58-49.7h-.199v49.7h.398v-49.7zm0 49.7v-.199h-45.58v.398h45.58zm45.58 0v-.199h-45.58v.398h45.58zm-410.222 0h-.199v49.7h.398v-49.7zm0 49.7v-.199H0v.398h45.58zm45.58-49.7h-.199v49.7h.398v-49.7zm0 49.7v-.199H45.58v.398h45.58zm45.581-49.7h-.199v49.7h.398v-49.7zm0 49.7v-.199h-45.58v.398h45.58zm45.58-49.7h-.199v49.7h.398v-49.7zm0 49.7v-.199h-45.58v.398h45.58zm45.58-49.7h-.199v49.7h.398v-49.7zm0 49.7v-.199h-45.58v.398h45.58zm45.58-49.7h-.199v49.7h.398v-49.7zm0 49.7v-.199h-45.58v.398h45.58zm45.58-49.7h-.199v49.7h.398v-49.7zm0 49.7v-.199h-45.58v.398h45.58zm45.581-49.7h-.199v49.7h.398v-49.7zm0 49.7v-.199h-45.581v.398h45.581zm45.58-49.7h-.199v49.7h.398v-49.7zm0 49.7v-.199h-45.58v.398h45.58zm45.58 0v-.199h-45.58v.398h45.58zm-410.222 0h-.199V497h.398v-49.7zm45.58 0h-.199V497h.398v-49.7zm45.581 0h-.199V497h.398v-49.7zm45.58 0h-.199V497h.398v-49.7zm45.58 0h-.199V497h.398v-49.7zm45.58 0h-.199V497h.398v-49.7zm45.58 0h-.199V497h.398v-49.7zm45.581 0h-.199V497h.398v-49.7zm45.58 0h-.199V497h.398v-49.7zM1412.78 0h-.2v49.7h.4V0zm0 49.7v-.199h-45.58v.398h45.58zm-45.58 0h.2V0h-.4v49.7zM1458.36 0h-.2v49.7h.4V0zm0 49.7v-.199h-45.58v.398h45.58zM1503.94 0h-.2v49.7h.4V0zm0 49.7v-.199h-45.58v.398h45.58zM1549.52 0h-.2v49.7h.4V0zm0 49.7v-.199h-45.58v.398h45.58zM1595.1 0h-.2v49.7h.4V0zm0 49.7v-.199h-45.58v.398h45.58zM1640.68 0h-.2v49.7h.4V0zm0 49.7v-.199h-45.58v.398h45.58zM1686.26 0h-.2v49.7h.4V0zm0 49.7v-.199h-45.58v.398h45.58zM1731.84 0h-.2v49.7h.4V0zm0 49.7v-.199h-45.58v.398h45.58zM1777.42 0h-.2v49.7h.4V0zm0 49.7v-.199h-45.58v.398h45.58zm45.58 0v-.199h-45.58v.398H1823zm-410.22 0h-.2v49.7h.4V49.7zm0 49.7v-.199h-45.58v.398h45.58zm-45.58 0h.2V49.7h-.4v49.7zm91.16-49.7h-.2v49.7h.4V49.7zm0 49.7v-.199h-45.58v.398h45.58zm45.58-49.7h-.2v49.7h.4V49.7zm0 49.7v-.199h-45.58v.398h45.58zm45.58-49.7h-.2v49.7h.4V49.7zm0 49.7v-.199h-45.58v.398h45.58zm45.58-49.7h-.2v49.7h.4V49.7zm0 49.7v-.199h-45.58v.398h45.58zm45.58-49.7h-.2v49.7h.4V49.7zm0 49.7v-.199h-45.58v.398h45.58zm45.58-49.7h-.2v49.7h.4V49.7zm0 49.7v-.199h-45.58v.398h45.58zm45.58-49.7h-.2v49.7h.4V49.7zm0 49.7v-.199h-45.58v.398h45.58zm45.58-49.7h-.2v49.7h.4V49.7zm0 49.7v-.199h-45.58v.398h45.58zm45.58 0v-.199h-45.58v.398H1823zm-410.22 0h-.2v49.7h.4V99.4zm0 49.7v-.199h-45.58v.398h45.58zm-45.58 0h.2V99.4h-.4v49.7zm91.16-49.7h-.2v49.7h.4V99.4zm0 49.7v-.199h-45.58v.398h45.58zm45.58-49.7h-.2v49.7h.4V99.4zm0 49.7v-.199h-45.58v.398h45.58zm45.58-49.7h-.2v49.7h.4V99.4zm0 49.7v-.199h-45.58v.398h45.58zm45.58-49.7h-.2v49.7h.4V99.4zm0 49.7v-.199h-45.58v.398h45.58zm45.58-49.7h-.2v49.7h.4V99.4zm0 49.7v-.199h-45.58v.398h45.58zm45.58-49.7h-.2v49.7h.4V99.4zm0 49.7v-.199h-45.58v.398h45.58zm45.58-49.7h-.2v49.7h.4V99.4zm0 49.7v-.199h-45.58v.398h45.58zm45.58-49.7h-.2v49.7h.4V99.4zm0 49.7v-.199h-45.58v.398h45.58zm45.58 0v-.199h-45.58v.398H1823zm-410.22 0h-.2v49.7h.4v-49.7zm0 49.7v-.199h-45.58v.398h45.58zm-45.58 0h.2v-49.7h-.4v49.7zm91.16-49.7h-.2v49.7h.4v-49.7zm0 49.7v-.199h-45.58v.398h45.58zm45.58-49.7h-.2v49.7h.4v-49.7zm0 49.7v-.199h-45.58v.398h45.58zm45.58-49.7h-.2v49.7h.4v-49.7zm0 49.7v-.199h-45.58v.398h45.58zm45.58-49.7h-.2v49.7h.4v-49.7zm0 49.7v-.199h-45.58v.398h45.58zm45.58-49.7h-.2v49.7h.4v-49.7zm0 49.7v-.199h-45.58v.398h45.58zm45.58-49.7h-.2v49.7h.4v-49.7zm0 49.7v-.199h-45.58v.398h45.58zm45.58-49.7h-.2v49.7h.4v-49.7zm0 49.7v-.199h-45.58v.398h45.58zm45.58-49.7h-.2v49.7h.4v-49.7zm0 49.7v-.199h-45.58v.398h45.58zm45.58 0v-.199h-45.58v.398H1823zm-410.22 0h-.2v49.7h.4v-49.7zm0 49.7v-.199h-45.58v.398h45.58zm-45.58 0h.2v-49.7h-.4v49.7zm91.16-49.7h-.2v49.7h.4v-49.7zm0 49.7v-.199h-45.58v.398h45.58zm45.58-49.7h-.2v49.7h.4v-49.7zm0 49.7v-.199h-45.58v.398h45.58zm45.58-49.7h-.2v49.7h.4v-49.7zm0 49.7v-.199h-45.58v.398h45.58zm45.58-49.7h-.2v49.7h.4v-49.7zm0 49.7v-.199h-45.58v.398h45.58zm45.58-49.7h-.2v49.7h.4v-49.7zm0 49.7v-.199h-45.58v.398h45.58zm45.58-49.7h-.2v49.7h.4v-49.7zm0 49.7v-.199h-45.58v.398h45.58zm45.58-49.7h-.2v49.7h.4v-49.7zm0 49.7v-.199h-45.58v.398h45.58zm45.58-49.7h-.2v49.7h.4v-49.7zm0 49.7v-.199h-45.58v.398h45.58zm45.58 0v-.199h-45.58v.398H1823zm-410.22 0h-.2v49.7h.4v-49.7zm0 49.7v-.199h-45.58v.398h45.58zm-45.58 0h.2v-49.7h-.4v49.7zm91.16-49.7h-.2v49.7h.4v-49.7zm0 49.7v-.199h-45.58v.398h45.58zm45.58-49.7h-.2v49.7h.4v-49.7zm0 49.7v-.199h-45.58v.398h45.58zm45.58-49.7h-.2v49.7h.4v-49.7zm0 49.7v-.199h-45.58v.398h45.58zm45.58-49.7h-.2v49.7h.4v-49.7zm0 49.7v-.199h-45.58v.398h45.58zm45.58-49.7h-.2v49.7h.4v-49.7zm0 49.7v-.199h-45.58v.398h45.58zm45.58-49.7h-.2v49.7h.4v-49.7zm0 49.7v-.199h-45.58v.398h45.58zm45.58-49.7h-.2v49.7h.4v-49.7zm0 49.7v-.199h-45.58v.398h45.58zm45.58-49.7h-.2v49.7h.4v-49.7zm0 49.7v-.199h-45.58v.398h45.58zm45.58 0v-.199h-45.58v.398H1823zm-410.22 0h-.2v49.7h.4v-49.7zm0 49.7v-.199h-45.58v.398h45.58zm-45.58 0h.2v-49.7h-.4v49.7zm91.16-49.7h-.2v49.7h.4v-49.7zm0 49.7v-.199h-45.58v.398h45.58zm45.58-49.7h-.2v49.7h.4v-49.7zm0 49.7v-.199h-45.58v.398h45.58zm45.58-49.7h-.2v49.7h.4v-49.7zm0 49.7v-.199h-45.58v.398h45.58zm45.58-49.7h-.2v49.7h.4v-49.7zm0 49.7v-.199h-45.58v.398h45.58zm45.58-49.7h-.2v49.7h.4v-49.7zm0 49.7v-.199h-45.58v.398h45.58zm45.58-49.7h-.2v49.7h.4v-49.7zm0 49.7v-.199h-45.58v.398h45.58zm45.58-49.7h-.2v49.7h.4v-49.7zm0 49.7v-.199h-45.58v.398h45.58zm45.58-49.7h-.2v49.7h.4v-49.7zm0 49.7v-.199h-45.58v.398h45.58zm45.58 0v-.199h-45.58v.398H1823zm-410.22 0h-.2v49.7h.4v-49.7zm0 49.7v-.199h-45.58v.398h45.58zm-45.58 0h.2v-49.7h-.4v49.7zm91.16-49.7h-.2v49.7h.4v-49.7zm0 49.7v-.199h-45.58v.398h45.58zm45.58-49.7h-.2v49.7h.4v-49.7zm0 49.7v-.199h-45.58v.398h45.58zm45.58-49.7h-.2v49.7h.4v-49.7zm0 49.7v-.199h-45.58v.398h45.58zm45.58-49.7h-.2v49.7h.4v-49.7zm0 49.7v-.199h-45.58v.398h45.58zm45.58-49.7h-.2v49.7h.4v-49.7zm0 49.7v-.199h-45.58v.398h45.58zm45.58-49.7h-.2v49.7h.4v-49.7zm0 49.7v-.199h-45.58v.398h45.58zm45.58-49.7h-.2v49.7h.4v-49.7zm0 49.7v-.199h-45.58v.398h45.58zm45.58-49.7h-.2v49.7h.4v-49.7zm0 49.7v-.199h-45.58v.398h45.58zm45.58 0v-.199h-45.58v.398H1823zm-410.22 0h-.2v49.7h.4v-49.7zm0 49.7v-.199h-45.58v.398h45.58zm-45.58 0h.2v-49.7h-.4v49.7zm91.16-49.7h-.2v49.7h.4v-49.7zm0 49.7v-.199h-45.58v.398h45.58zm45.58-49.7h-.2v49.7h.4v-49.7zm0 49.7v-.199h-45.58v.398h45.58zm45.58-49.7h-.2v49.7h.4v-49.7zm0 49.7v-.199h-45.58v.398h45.58zm45.58-49.7h-.2v49.7h.4v-49.7zm0 49.7v-.199h-45.58v.398h45.58zm45.58-49.7h-.2v49.7h.4v-49.7zm0 49.7v-.199h-45.58v.398h45.58zm45.58-49.7h-.2v49.7h.4v-49.7zm0 49.7v-.199h-45.58v.398h45.58zm45.58-49.7h-.2v49.7h.4v-49.7zm0 49.7v-.199h-45.58v.398h45.58zm45.58-49.7h-.2v49.7h.4v-49.7zm0 49.7v-.199h-45.58v.398h45.58zm45.58 0v-.199h-45.58v.398H1823zm-410.22 0h-.2V497h.4v-49.7zM1367.2 497h.2v-49.7h-.4V497zm91.16-49.7h-.2V497h.4v-49.7zm45.58 0h-.2V497h.4v-49.7zm45.58 0h-.2V497h.4v-49.7zm45.58 0h-.2V497h.4v-49.7zm45.58 0h-.2V497h.4v-49.7zm45.58 0h-.2V497h.4v-49.7zm45.58 0h-.2V497h.4v-49.7zm45.58 0h-.2V497h.4v-49.7zM956.976 0h-.199v49.7h.398V0zm0 49.7v-.199h-45.58v.398h45.58zM1002.56 0h-.2v49.7h.4V0zm0 49.7v-.199h-45.584v.398h45.584zM1048.14 0h-.2v49.7h.4V0zm0 49.7v-.199h-45.58v.398h45.58zM1093.72 0h-.2v49.7h.4V0zm0 49.7v-.199h-45.58v.398h45.58zM1139.3 0h-.2v49.7h.4V0zm0 49.7v-.199h-45.58v.398h45.58zM1184.88 0h-.2v49.7h.4V0zm0 49.7v-.199h-45.58v.398h45.58zM1230.46 0h-.2v49.7h.4V0zm0 49.7v-.199h-45.58v.398h45.58zM1276.04 0h-.2v49.7h.4V0zm0 49.7v-.199h-45.58v.398h45.58zM1321.62 0h-.2v49.7h.4V0zm0 49.7v-.199h-45.58v.398h45.58zm45.58 0v-.199h-45.58v.398h45.58zm-410.224 0h-.199v49.7h.398V49.7zm0 49.7v-.199h-45.58v.398h45.58zm45.584-49.7h-.2v49.7h.4V49.7zm0 49.7v-.199h-45.584v.398h45.584zm45.58-49.7h-.2v49.7h.4V49.7zm0 49.7v-.199h-45.58v.398h45.58zm45.58-49.7h-.2v49.7h.4V49.7zm0 49.7v-.199h-45.58v.398h45.58zm45.58-49.7h-.2v49.7h.4V49.7zm0 49.7v-.199h-45.58v.398h45.58zm45.58-49.7h-.2v49.7h.4V49.7zm0 49.7v-.199h-45.58v.398h45.58zm45.58-49.7h-.2v49.7h.4V49.7zm0 49.7v-.199h-45.58v.398h45.58zm45.58-49.7h-.2v49.7h.4V49.7zm0 49.7v-.199h-45.58v.398h45.58zm45.58-49.7h-.2v49.7h.4V49.7zm0 49.7v-.199h-45.58v.398h45.58zm45.58 0v-.199h-45.58v.398h45.58zm-410.224 0h-.199v49.7h.398V99.4zm0 49.7v-.199h-45.58v.398h45.58zm45.584-49.7h-.2v49.7h.4V99.4zm0 49.7v-.199h-45.584v.398h45.584zm45.58-49.7h-.2v49.7h.4V99.4zm0 49.7v-.199h-45.58v.398h45.58zm45.58-49.7h-.2v49.7h.4V99.4zm0 49.7v-.199h-45.58v.398h45.58zm45.58-49.7h-.2v49.7h.4V99.4zm0 49.7v-.199h-45.58v.398h45.58zm45.58-49.7h-.2v49.7h.4V99.4zm0 49.7v-.199h-45.58v.398h45.58zm45.58-49.7h-.2v49.7h.4V99.4zm0 49.7v-.199h-45.58v.398h45.58zm45.58-49.7h-.2v49.7h.4V99.4zm0 49.7v-.199h-45.58v.398h45.58zm45.58-49.7h-.2v49.7h.4V99.4zm0 49.7v-.199h-45.58v.398h45.58zm45.58 0v-.199h-45.58v.398h45.58zm-410.224 0h-.199v49.7h.398v-49.7zm0 49.7v-.199h-45.58v.398h45.58zm45.584-49.7h-.2v49.7h.4v-49.7zm0 49.7v-.199h-45.584v.398h45.584zm45.58-49.7h-.2v49.7h.4v-49.7zm0 49.7v-.199h-45.58v.398h45.58zm45.58-49.7h-.2v49.7h.4v-49.7zm0 49.7v-.199h-45.58v.398h45.58zm45.58-49.7h-.2v49.7h.4v-49.7zm0 49.7v-.199h-45.58v.398h45.58zm45.58-49.7h-.2v49.7h.4v-49.7zm0 49.7v-.199h-45.58v.398h45.58zm45.58-49.7h-.2v49.7h.4v-49.7zm0 49.7v-.199h-45.58v.398h45.58zm45.58-49.7h-.2v49.7h.4v-49.7zm0 49.7v-.199h-45.58v.398h45.58zm45.58-49.7h-.2v49.7h.4v-49.7zm0 49.7v-.199h-45.58v.398h45.58zm45.58 0v-.199h-45.58v.398h45.58zm-410.224 0h-.199v49.7h.398v-49.7zm0 49.7v-.199h-45.58v.398h45.58zm45.584-49.7h-.2v49.7h.4v-49.7zm0 49.7v-.199h-45.584v.398h45.584zm45.58-49.7h-.2v49.7h.4v-49.7zm0 49.7v-.199h-45.58v.398h45.58zm45.58-49.7h-.2v49.7h.4v-49.7zm0 49.7v-.199h-45.58v.398h45.58zm45.58-49.7h-.2v49.7h.4v-49.7zm0 49.7v-.199h-45.58v.398h45.58zm45.58-49.7h-.2v49.7h.4v-49.7zm0 49.7v-.199h-45.58v.398h45.58zm45.58-49.7h-.2v49.7h.4v-49.7zm0 49.7v-.199h-45.58v.398h45.58zm45.58-49.7h-.2v49.7h.4v-49.7zm0 49.7v-.199h-45.58v.398h45.58zm45.58-49.7h-.2v49.7h.4v-49.7zm0 49.7v-.199h-45.58v.398h45.58zm45.58 0v-.199h-45.58v.398h45.58zm-410.224 0h-.199v49.7h.398v-49.7zm0 49.7v-.199h-45.58v.398h45.58zm45.584-49.7h-.2v49.7h.4v-49.7zm0 49.7v-.199h-45.584v.398h45.584zm45.58-49.7h-.2v49.7h.4v-49.7zm0 49.7v-.199h-45.58v.398h45.58zm45.58-49.7h-.2v49.7h.4v-49.7zm0 49.7v-.199h-45.58v.398h45.58zm45.58-49.7h-.2v49.7h.4v-49.7zm0 49.7v-.199h-45.58v.398h45.58zm45.58-49.7h-.2v49.7h.4v-49.7zm0 49.7v-.199h-45.58v.398h45.58zm45.58-49.7h-.2v49.7h.4v-49.7zm0 49.7v-.199h-45.58v.398h45.58zm45.58-49.7h-.2v49.7h.4v-49.7zm0 49.7v-.199h-45.58v.398h45.58zm45.58-49.7h-.2v49.7h.4v-49.7zm0 49.7v-.199h-45.58v.398h45.58zm45.58 0v-.199h-45.58v.398h45.58zm-410.224 0h-.199v49.7h.398v-49.7zm0 49.7v-.199h-45.58v.398h45.58zm45.584-49.7h-.2v49.7h.4v-49.7zm0 49.7v-.199h-45.584v.398h45.584zm45.58-49.7h-.2v49.7h.4v-49.7zm0 49.7v-.199h-45.58v.398h45.58zm45.58-49.7h-.2v49.7h.4v-49.7zm0 49.7v-.199h-45.58v.398h45.58zm45.58-49.7h-.2v49.7h.4v-49.7zm0 49.7v-.199h-45.58v.398h45.58zm45.58-49.7h-.2v49.7h.4v-49.7zm0 49.7v-.199h-45.58v.398h45.58zm45.58-49.7h-.2v49.7h.4v-49.7zm0 49.7v-.199h-45.58v.398h45.58zm45.58-49.7h-.2v49.7h.4v-49.7zm0 49.7v-.199h-45.58v.398h45.58zm45.58-49.7h-.2v49.7h.4v-49.7zm0 49.7v-.199h-45.58v.398h45.58zm45.58 0v-.199h-45.58v.398h45.58zm-410.224 0h-.199v49.7h.398v-49.7zm0 49.7v-.199h-45.58v.398h45.58zm45.584-49.7h-.2v49.7h.4v-49.7zm0 49.7v-.199h-45.584v.398h45.584zm45.58-49.7h-.2v49.7h.4v-49.7zm0 49.7v-.199h-45.58v.398h45.58zm45.58-49.7h-.2v49.7h.4v-49.7zm0 49.7v-.199h-45.58v.398h45.58zm45.58-49.7h-.2v49.7h.4v-49.7zm0 49.7v-.199h-45.58v.398h45.58zm45.58-49.7h-.2v49.7h.4v-49.7zm0 49.7v-.199h-45.58v.398h45.58zm45.58-49.7h-.2v49.7h.4v-49.7zm0 49.7v-.199h-45.58v.398h45.58zm45.58-49.7h-.2v49.7h.4v-49.7zm0 49.7v-.199h-45.58v.398h45.58zm45.58-49.7h-.2v49.7h.4v-49.7zm0 49.7v-.199h-45.58v.398h45.58zm45.58 0v-.199h-45.58v.398h45.58zm-410.224 0h-.199v49.7h.398v-49.7zm0 49.7v-.199h-45.58v.398h45.58zm45.584-49.7h-.2v49.7h.4v-49.7zm0 49.7v-.199h-45.584v.398h45.584zm45.58-49.7h-.2v49.7h.4v-49.7zm0 49.7v-.199h-45.58v.398h45.58zm45.58-49.7h-.2v49.7h.4v-49.7zm0 49.7v-.199h-45.58v.398h45.58zm45.58-49.7h-.2v49.7h.4v-49.7zm0 49.7v-.199h-45.58v.398h45.58zm45.58-49.7h-.2v49.7h.4v-49.7zm0 49.7v-.199h-45.58v.398h45.58zm45.58-49.7h-.2v49.7h.4v-49.7zm0 49.7v-.199h-45.58v.398h45.58zm45.58-49.7h-.2v49.7h.4v-49.7zm0 49.7v-.199h-45.58v.398h45.58zm45.58-49.7h-.2v49.7h.4v-49.7zm0 49.7v-.199h-45.58v.398h45.58zm45.58 0v-.199h-45.58v.398h45.58zm-410.224 0h-.199V497h.398v-49.7zm45.584 0h-.2V497h.4v-49.7zm45.58 0h-.2V497h.4v-49.7zm45.58 0h-.2V497h.4v-49.7zm45.58 0h-.2V497h.4v-49.7zm45.58 0h-.2V497h.4v-49.7zm45.58 0h-.2V497h.4v-49.7zm45.58 0h-.2V497h.4v-49.7zm45.58 0h-.2V497h.4v-49.7zM911.604 994v.398h.398V994zM0 497h-.398zm0 49.7h-.398zm0 49.7h.398zM0 994h-.398v.398H0zm1823 0v.398h.4V994zm-911.604 0h-.398v.398h.398zm.208-994h.398v-.398h-.398zM0 0v-.398h-.398V0zm0 49.7h-.398zm0 49.7h.398zm0 347.9h.398zM1367.2 0v.398zm45.58 0v.398zm45.58 0v-.398zM1823 0h.4v-.398h-.4zM911.396 0v-.398h-.398V0zm410.224 0v-.398zM911.604 497h-.398v49.7h.796V497zm0 49.7h-.398v49.7h.796v-49.7zm0 49.7h-.398v49.7h.796v-49.7zm0 49.7h-.398v49.7h.796v-49.7zm0 49.7h-.398v49.7h.796v-49.7zm0 49.7h-.398v49.7h.796v-49.7zm0 49.7h-.398v49.7h.796v-49.7zm0 49.7h-.398v49.7h.796v-49.7zm0 49.7h-.398v49.7h.796v-49.7zM501.382 994v-.398h-45.58v.796h45.58zm45.58 0v-.398h-45.58v.796h45.58zm45.58 0v-.398h-45.58v.796h45.58zm45.58 0v-.398h-45.58v.796h45.58zm45.581 0v-.398h-45.581v.796h45.581zm45.58 0v-.398h-45.58v.796h45.58zm45.58 0v-.398h-45.58v.796h45.58zm45.58 0v-.398h-45.58v.796h45.58zm45.58 0v-.398h-45.58v.796h45.58zm45.581-49.7h-.398V994h.796v-49.7zm0 49.7v-.398h-45.581v.796h45.581zM0 546.7h.398V497h-.796v49.7zm0 49.7h.398v-49.7h-.796v49.7zm0 49.7h.398v-49.7h-.796v49.7zm0 49.7h.398v-49.7h-.796v49.7zm0 49.7h.398v-49.7h-.796v49.7zm0 49.7h.398v-49.7h-.796v49.7zm0 49.7h.398v-49.7h-.796v49.7zm0 49.7h.398v-49.7h-.796v49.7zm0 49.7h.398v-49.7h-.796v49.7zM45.58 994v-.398H0v.796h45.58zM0 994h.398v-49.7h-.796V994zm91.16 0v-.398H45.58v.796h45.58zm45.581 0v-.398h-45.58v.796h45.58zm45.58 0v-.398h-45.58v.796h45.58zm45.58 0v-.398h-45.58v.796h45.58zm45.58 0v-.398h-45.58v.796h45.58zm45.58 0v-.398h-45.58v.796h45.58zm45.581 0v-.398h-45.581v.796h45.581zm45.58 0v-.398h-45.58v.796h45.58zm45.58 0v-.398h-45.58v.796h45.58zM1823 497h-.4v49.7h.8V497zm0 49.7h-.4v49.7h.8v-49.7zm0 49.7h-.4v49.7h.8v-49.7zm0 49.7h-.4v49.7h.8v-49.7zm0 49.7h-.4v49.7h.8v-49.7zm0 49.7h-.4v49.7h.8v-49.7zm0 49.7h-.4v49.7h.8v-49.7zm0 49.7h-.4v49.7h.8v-49.7zm0 49.7h-.4v49.7h.8v-49.7zM1412.78 994v-.398h-45.58v.796h45.58zm45.58 0v-.398h-45.58v.796h45.58zm45.58 0v-.398h-45.58v.796h45.58zm45.58 0v-.398h-45.58v.796h45.58zm45.58 0v-.398h-45.58v.796h45.58zm45.58 0v-.398h-45.58v.796h45.58zm45.58 0v-.398h-45.58v.796h45.58zm45.58 0v-.398h-45.58v.796h45.58zm45.58 0v-.398h-45.58v.796h45.58zm45.58-49.7h-.4V994h.8v-49.7zm0 49.7v-.398h-45.58v.796H1823zM911.396 546.7h.398V497h-.796v49.7zm0 49.7h.398v-49.7h-.796v49.7zm0 49.7h.398v-49.7h-.796v49.7zm0 49.7h.398v-49.7h-.796v49.7zm0 49.7h.398v-49.7h-.796v49.7zm0 49.7h.398v-49.7h-.796v49.7zm0 49.7h.398v-49.7h-.796v49.7zm0 49.7h.398v-49.7h-.796v49.7zm0 49.7h.398v-49.7h-.796v49.7zm45.58 49.7v-.398h-45.58v.796h45.58zm-45.58 0h.398v-49.7h-.796V994zm91.164 0v-.398h-45.584v.796h45.584zm45.58 0v-.398h-45.58v.796h45.58zm45.58 0v-.398h-45.58v.796h45.58zm45.58 0v-.398h-45.58v.796h45.58zm45.58 0v-.398h-45.58v.796h45.58zm45.58 0v-.398h-45.58v.796h45.58zm45.58 0v-.398h-45.58v.796h45.58zm45.58 0v-.398h-45.58v.796h45.58zm45.58 0v-.398h-45.58v.796h45.58zM455.802 0v.398h45.58v-.796h-45.58zm45.58 0v.398h45.58v-.796h-45.58zm45.58 0v.398h45.58v-.796h-45.58zm45.58 0v.398h45.58v-.796h-45.58zm45.58 0v.398h45.581v-.796h-45.581zm45.581 0v.398h45.58v-.796h-45.58zm45.58 0v.398h45.58v-.796h-45.58zm45.58 0v.398h45.58v-.796h-45.58zm45.58 0v.398h45.58v-.796h-45.58zm45.58 0v.398h45.581v-.796h-45.581zm45.581 0h-.398v49.7h.796V0zm0 49.7h-.398v49.7h.796V49.7zm0 49.7h-.398v49.7h.796V99.4zm0 49.7h-.398v49.7h.796v-49.7zm0 49.7h-.398v49.7h.796v-49.7zm0 49.7h-.398v49.7h.796v-49.7zm0 49.7h-.398v49.7h.796v-49.7zm0 49.7h-.398v49.7h.796v-49.7zm0 49.7h-.398v49.7h.796v-49.7zm0 49.7h-.398V497h.796v-49.7zM0 0v.398h45.58v-.796H0zm0 49.7h.398V0h-.796v49.7zM45.58 0v.398h45.58v-.796H45.58zm45.58 0v.398h45.581v-.796h-45.58zm45.581 0v.398h45.58v-.796h-45.58zm45.58 0v.398h45.58v-.796h-45.58zm45.58 0v.398h45.58v-.796h-45.58zm45.58 0v.398h45.58v-.796h-45.58zm45.58 0v.398h45.581v-.796h-45.581zm45.581 0v.398h45.58v-.796h-45.58zm45.58 0v.398h45.58v-.796h-45.58zM0 99.4h.398V49.7h-.796v49.7zm0 49.7h.398V99.4h-.796v49.7zm0 49.7h.398v-49.7h-.796v49.7zm0 49.7h.398v-49.7h-.796v49.7zm0 49.7h.398v-49.7h-.796v49.7zm0 49.7h.398v-49.7h-.796v49.7zm0 49.7h.398v-49.7h-.796v49.7zm0 49.7h.398v-49.7h-.796v49.7zM0 497h.398v-49.7h-.796V497zM1367.2 0v.398h45.58v-.796h-45.58zm45.58 0v.398h45.58v-.796h-45.58zm45.58 0v.398h45.58v-.796h-45.58zm45.58 0v.398h45.58v-.796h-45.58zm45.58 0v.398h45.58v-.796h-45.58zm45.58 0v.398h45.58v-.796h-45.58zm45.58 0v.398h45.58v-.796h-45.58zm45.58 0v.398h45.58v-.796h-45.58zm45.58 0v.398h45.58v-.796h-45.58zm45.58 0v.398H1823v-.796h-45.58zM1823 0h-.4v49.7h.8V0zm0 49.7h-.4v49.7h.8V49.7zm0 49.7h-.4v49.7h.8V99.4zm0 49.7h-.4v49.7h.8v-49.7zm0 49.7h-.4v49.7h.8v-49.7zm0 49.7h-.4v49.7h.8v-49.7zm0 49.7h-.4v49.7h.8v-49.7zm0 49.7h-.4v49.7h.8v-49.7zm0 49.7h-.4v49.7h.8v-49.7zm0 49.7h-.4V497h.8v-49.7zM911.396 0v.398h45.58v-.796h-45.58zm0 49.7h.398V0h-.796v49.7zM956.976 0v.398h45.584v-.796h-45.584zm45.584 0v.398h45.58v-.796h-45.58zm45.58 0v.398h45.58v-.796h-45.58zm45.58 0v.398h45.58v-.796h-45.58zm45.58 0v.398h45.58v-.796h-45.58zm45.58 0v.398h45.58v-.796h-45.58zm45.58 0v.398h45.58v-.796h-45.58zm45.58 0v.398h45.58v-.796h-45.58zm45.58 0v.398h45.58v-.796h-45.58zM911.396 99.4h.398V49.7h-.796v49.7zm0 49.7h.398V99.4h-.796v49.7zm0 49.7h.398v-49.7h-.796v49.7zm0 49.7h.398v-49.7h-.796v49.7zm0 49.7h.398v-49.7h-.796v49.7zm0 49.7h.398v-49.7h-.796v49.7zm0 49.7h.398v-49.7h-.796v49.7zm0 49.7h.398v-49.7h-.796v49.7zm0 49.7h.398v-49.7h-.796V497z" mask="url(#a)"/></g></svg>